<?xml version="1.0" encoding="UTF-8"?>
<svg id="Layer_2" data-name="Layer 2" xmlns="http://www.w3.org/2000/svg" viewBox="0 0 703.52 187.67">
  <defs>
    <style>
      .cls-1 {
        fill: #081a46;
      }
    </style>
  </defs>
  <g id="Layer_3" data-name="Layer 3">
    <g>
      <g>
        <path class="cls-1" d="M49.43,112.87c-16.1,0-28.36-4.47-36.79-13.43C4.22,90.49,0,77.77,0,61.29c0-8.19,1.29-15.5,3.86-21.93,2.57-6.43,6.09-11.86,10.57-16.29,4.48-4.43,9.81-7.78,16-10.07,6.19-2.28,12.91-3.43,20.15-3.43,4.19,0,8,.31,11.43.93,3.43.62,6.43,1.33,9,2.14,2.57.81,4.72,1.64,6.43,2.5,1.71.86,2.95,1.52,3.71,2l-6.43,18c-3.05-1.62-6.6-3-10.64-4.14-4.05-1.14-8.64-1.72-13.79-1.72-3.43,0-6.79.57-10.07,1.72s-6.19,2.98-8.71,5.5c-2.52,2.53-4.55,5.79-6.07,9.79-1.52,4-2.29,8.86-2.29,14.57,0,4.57.5,8.84,1.5,12.79,1,3.95,2.62,7.36,4.86,10.21,2.24,2.86,5.17,5.12,8.79,6.79,3.62,1.67,8,2.5,13.14,2.5,3.24,0,6.14-.19,8.72-.57,2.57-.38,4.86-.83,6.86-1.36,2-.52,3.76-1.12,5.29-1.79,1.52-.67,2.9-1.28,4.14-1.86l6.14,17.86c-3.14,1.91-7.57,3.62-13.29,5.14-5.71,1.52-12.34,2.29-19.86,2.29Z"/>
        <path class="cls-1" d="M125.44,112.3c-6.19-.1-11.22-.76-15.07-2s-6.91-2.98-9.14-5.21c-2.24-2.24-3.76-4.95-4.57-8.14-.81-3.19-1.21-6.79-1.21-10.79V3.43l21.29-3.43v81.86c0,1.91.14,3.62.43,5.14.29,1.52.83,2.81,1.64,3.86.81,1.05,1.98,1.91,3.5,2.57,1.52.67,3.57,1.1,6.14,1.29l-3,17.57Z"/>
        <path class="cls-1" d="M210.88,73.15c0,5.91-.86,11.31-2.57,16.22-1.71,4.91-4.19,9.1-7.43,12.57-3.24,3.48-7.12,6.17-11.64,8.07-4.53,1.91-9.6,2.86-15.22,2.86s-10.55-.95-15.07-2.86c-4.52-1.9-8.41-4.59-11.64-8.07-3.24-3.48-5.76-7.67-7.57-12.57-1.81-4.91-2.72-10.31-2.72-16.22s.93-11.29,2.79-16.14,4.43-9,7.71-12.43c3.29-3.43,7.19-6.09,11.72-8,4.52-1.9,9.45-2.86,14.79-2.86s10.41.95,14.93,2.86c4.52,1.91,8.41,4.57,11.64,8,3.24,3.43,5.76,7.57,7.57,12.43,1.81,4.86,2.72,10.24,2.72,16.14ZM189.16,73.15c0-6.57-1.31-11.74-3.93-15.5-2.62-3.76-6.36-5.64-11.21-5.64s-8.62,1.88-11.29,5.64c-2.67,3.76-4,8.93-4,15.5s1.33,11.79,4,15.64c2.67,3.86,6.43,5.79,11.29,5.79s8.59-1.93,11.21-5.79c2.62-3.86,3.93-9.07,3.93-15.64Z"/>
        <path class="cls-1" d="M291.46,108.3c-3.62,1.05-8.29,2.02-14,2.93-5.71.91-11.72,1.36-18,1.36s-11.69-.86-15.93-2.57c-4.24-1.71-7.6-4.12-10.07-7.21-2.48-3.09-4.24-6.79-5.29-11.07-1.05-4.29-1.57-9-1.57-14.14v-41.86h21.29v39.29c0,6.86.9,11.81,2.72,14.86,1.81,3.05,5.19,4.57,10.14,4.57,1.52,0,3.14-.07,4.86-.21,1.71-.14,3.24-.31,4.57-.5v-58.01h21.29v72.58Z"/>
        <path class="cls-1" d="M377.75,108.44c-1.91.57-4.1,1.12-6.57,1.64-2.48.52-5.07.98-7.79,1.36-2.71.38-5.48.69-8.29.93-2.81.24-5.5.36-8.07.36-6.19,0-11.71-.91-16.57-2.72-4.86-1.81-8.95-4.4-12.29-7.79-3.34-3.38-5.88-7.48-7.64-12.29-1.76-4.81-2.64-10.21-2.64-16.21s.76-11.6,2.29-16.5c1.52-4.9,3.72-9.07,6.57-12.5s6.36-6.05,10.5-7.86c4.14-1.81,8.88-2.72,14.22-2.72,2.95,0,5.59.29,7.93.86,2.33.57,4.69,1.38,7.07,2.43V3.43l21.29-3.43v108.44ZM329.61,72.72c0,6.57,1.48,11.86,4.43,15.86,2.95,4,7.33,6,13.14,6,1.91,0,3.67-.07,5.29-.21,1.62-.14,2.95-.31,4-.5v-38.72c-1.33-.86-3.07-1.57-5.21-2.14-2.14-.57-4.31-.86-6.5-.86-10.1,0-15.14,6.86-15.14,20.58Z"/>
        <path class="cls-1" d="M444.33,112.87c-16.1,0-28.36-4.47-36.79-13.43-8.43-8.95-12.64-21.67-12.64-38.15,0-8.19,1.29-15.5,3.86-21.93,2.57-6.43,6.09-11.86,10.57-16.29,4.48-4.43,9.81-7.78,16-10.07,6.19-2.28,12.91-3.43,20.15-3.43,4.19,0,8,.31,11.43.93,3.43.62,6.43,1.33,9,2.14,2.57.81,4.72,1.64,6.43,2.5,1.71.86,2.95,1.52,3.71,2l-6.43,18c-3.05-1.62-6.6-3-10.64-4.14-4.05-1.14-8.64-1.72-13.79-1.72-3.43,0-6.79.57-10.07,1.72s-6.19,2.98-8.71,5.5c-2.52,2.53-4.55,5.79-6.07,9.79-1.52,4-2.29,8.86-2.29,14.57,0,4.57.5,8.84,1.5,12.79,1,3.95,2.62,7.36,4.86,10.21,2.24,2.86,5.17,5.12,8.79,6.79,3.62,1.67,8,2.5,13.14,2.5,3.24,0,6.14-.19,8.72-.57,2.57-.38,4.86-.83,6.86-1.36,2-.52,3.76-1.12,5.29-1.79,1.52-.67,2.9-1.28,4.14-1.86l6.14,17.86c-3.14,1.91-7.57,3.62-13.29,5.14-5.71,1.52-12.34,2.29-19.86,2.29Z"/>
        <path class="cls-1" d="M518.77,33.72c6.29,0,11.52.72,15.72,2.14,4.19,1.43,7.55,3.48,10.07,6.14,2.52,2.67,4.31,5.91,5.36,9.72s1.57,8.05,1.57,12.71v44.29c-3.05.67-7.29,1.45-12.72,2.36s-12,1.36-19.72,1.36c-4.86,0-9.26-.43-13.22-1.28-3.95-.86-7.36-2.26-10.21-4.22-2.86-1.95-5.05-4.5-6.57-7.64-1.52-3.14-2.29-7-2.29-11.57s.88-8.09,2.64-11.14c1.76-3.05,4.12-5.48,7.07-7.29,2.95-1.81,6.33-3.12,10.14-3.93,3.81-.81,7.76-1.21,11.86-1.21,2.76,0,5.21.12,7.36.36,2.14.24,3.88.55,5.21.93v-2c0-3.62-1.1-6.52-3.29-8.71-2.19-2.19-6-3.29-11.43-3.29-3.62,0-7.19.26-10.71.79-3.52.52-6.57,1.26-9.14,2.21l-2.72-17.14c1.24-.38,2.79-.79,4.64-1.22,1.86-.43,3.88-.81,6.07-1.14,2.19-.33,4.5-.62,6.93-.86s4.88-.36,7.36-.36ZM520.48,96.01c2.09,0,4.09-.05,6-.14,1.91-.09,3.43-.24,4.57-.43v-16.14c-.86-.19-2.14-.38-3.86-.57-1.72-.19-3.29-.28-4.72-.28-2,0-3.88.12-5.64.36-1.76.24-3.31.69-4.64,1.36-1.34.67-2.38,1.57-3.14,2.71-.76,1.14-1.14,2.57-1.14,4.29,0,3.33,1.12,5.64,3.36,6.93,2.24,1.29,5.31,1.93,9.21,1.93Z"/>
        <path class="cls-1" d="M616.06,54.58c-1.91-.48-4.14-.98-6.71-1.5-2.57-.52-5.33-.79-8.29-.79-1.33,0-2.93.12-4.79.36-1.86.24-3.26.5-4.22.79v57.43h-21.29V39.72c3.81-1.33,8.31-2.59,13.5-3.78,5.19-1.19,10.98-1.79,17.36-1.79,1.14,0,2.52.07,4.14.22,1.62.14,3.24.33,4.86.57,1.62.24,3.24.52,4.86.86,1.62.34,3,.74,4.14,1.21l-3.57,17.58Z"/>
        <path class="cls-1" d="M695.93,108.44c-1.91.57-4.1,1.12-6.57,1.64-2.48.52-5.07.98-7.79,1.36-2.71.38-5.48.69-8.29.93-2.81.24-5.5.36-8.07.36-6.19,0-11.71-.91-16.57-2.72-4.86-1.81-8.95-4.4-12.29-7.79-3.34-3.38-5.88-7.48-7.64-12.29-1.76-4.81-2.64-10.21-2.64-16.21s.76-11.6,2.29-16.5c1.52-4.9,3.72-9.07,6.57-12.5s6.36-6.05,10.5-7.86c4.14-1.81,8.88-2.72,14.22-2.72,2.95,0,5.59.29,7.93.86,2.33.57,4.69,1.38,7.07,2.43V3.43l21.29-3.43v108.44ZM647.78,72.72c0,6.57,1.48,11.86,4.43,15.86,2.95,4,7.33,6,13.14,6,1.91,0,3.67-.07,5.29-.21,1.62-.14,2.95-.31,4-.5v-38.72c-1.33-.86-3.07-1.57-5.21-2.14-2.14-.57-4.31-.86-6.5-.86-10.1,0-15.14,6.86-15.14,20.58Z"/>
      </g>
      <g>
        <path class="cls-1" d="M508.37,163.66c0,2.25-.33,4.29-.99,6.11-.66,1.82-1.62,3.38-2.87,4.66-1.25,1.29-2.79,2.28-4.61,2.98-1.82.7-3.9,1.04-6.22,1.04-.97,0-1.98-.04-3.03-.13-1.05-.09-2.09-.21-3.11-.35s-1.99-.31-2.92-.51-1.75-.4-2.47-.62v-39.4l7.98-1.28v14.04c.89-.39,1.82-.7,2.79-.91.97-.22,2-.32,3.11-.32,2,0,3.77.35,5.31,1.04,1.53.7,2.82,1.69,3.86,2.98,1.04,1.28,1.82,2.83,2.36,4.64.54,1.8.8,3.81.8,6.03ZM500.23,163.45c0-5.15-1.9-7.72-5.68-7.72-.82,0-1.64.11-2.44.32s-1.46.48-1.96.8v14.53c.39.07.89.13,1.5.19.61.05,1.27.08,1.98.08,2.18,0,3.82-.75,4.93-2.25,1.11-1.5,1.66-3.48,1.66-5.95Z"/>
        <path class="cls-1" d="M538.87,149.57c-1.61,5.43-3.29,10.52-5.05,15.27s-3.67,9.36-5.75,13.83c-.75,1.61-1.5,2.97-2.25,4.1-.75,1.13-1.57,2.06-2.47,2.79-.89.73-1.91,1.27-3.03,1.61-1.13.34-2.44.51-3.95.51-1.25,0-2.41-.12-3.46-.35-1.06-.23-1.92-.49-2.6-.78l1.39-6.38c.82.28,1.55.48,2.2.59.64.11,1.32.16,2.04.16,1.43,0,2.53-.38,3.3-1.15.77-.77,1.42-1.83,1.96-3.19-1.82-3.57-3.65-7.59-5.47-12.03-1.82-4.45-3.54-9.44-5.15-14.98h8.47c.36,1.39.78,2.9,1.26,4.53.49,1.63,1,3.27,1.53,4.93.54,1.66,1.09,3.28,1.64,4.85.56,1.57,1.09,3,1.59,4.29.47-1.28.95-2.72,1.45-4.29.5-1.57,1-3.19,1.48-4.85.48-1.66.95-3.3,1.4-4.93.45-1.63.85-3.14,1.21-4.53h8.26Z"/>
        <path class="cls-1" d="M552.22,181.03h26.8v6.65h-26.8v-6.65Z"/>
        <path class="cls-1" d="M590.86,177.22c-2.61-.22-4.72-.62-6.35-1.21s-2.83-1.08-3.62-1.47l2.3-6.17c1.25.61,2.74,1.16,4.47,1.66s3.56.75,5.49.75c2.18,0,3.67-.29,4.48-.88s1.21-1.42,1.21-2.49c0-.68-.16-1.26-.48-1.74-.32-.48-.79-.92-1.39-1.31s-1.38-.78-2.3-1.15-2-.78-3.22-1.21c-1.18-.43-2.33-.9-3.46-1.42s-2.14-1.15-3.05-1.9c-.91-.75-1.64-1.67-2.2-2.76-.55-1.09-.83-2.4-.83-3.94,0-1.18.17-2.31.51-3.4.34-1.09.86-2.08,1.58-2.97s1.64-1.65,2.79-2.28c1.14-.63,2.5-1.08,4.07-1.37v-5.79h6.75v5.57c1.86.18,3.46.45,4.8.8s2.4.72,3.19,1.07l-1.66,6.43c-1.18-.5-2.55-.93-4.1-1.28s-3.19-.54-4.9-.54-2.95.28-3.7.86-1.12,1.32-1.12,2.25c0,.57.11,1.06.35,1.47.23.41.6.78,1.1,1.1.5.32,1.12.63,1.85.94s1.62.64,2.65.99c1.57.57,3.03,1.2,4.37,1.88,1.34.68,2.5,1.46,3.48,2.33.98.87,1.75,1.9,2.3,3.08.55,1.18.83,2.55.83,4.13,0,1.07-.16,2.13-.48,3.19s-.86,2.03-1.61,2.92c-.75.89-1.72,1.66-2.92,2.3-1.2.64-2.67,1.11-4.42,1.39v6.54h-6.75v-6.38Z"/>
        <path class="cls-1" d="M637.27,176.79c-1.36.39-3.11.76-5.25,1.1-2.14.34-4.4.51-6.75.51s-4.39-.32-5.98-.96c-1.59-.65-2.85-1.55-3.78-2.71-.93-1.16-1.59-2.55-1.98-4.15-.39-1.61-.59-3.38-.59-5.31v-15.7h7.99v14.74c0,2.57.34,4.43,1.02,5.57.68,1.15,1.95,1.72,3.81,1.72.57,0,1.18-.03,1.82-.08s1.22-.12,1.72-.19v-21.76h7.99v27.22Z"/>
        <path class="cls-1" d="M669.64,176.85c-.72.21-1.54.42-2.47.62-.93.2-1.9.36-2.92.51-1.02.14-2.06.26-3.11.35s-2.06.13-3.03.13c-2.32,0-4.4-.34-6.22-1.02-1.82-.68-3.36-1.65-4.61-2.92-1.25-1.26-2.21-2.8-2.87-4.61-.66-1.8-.99-3.83-.99-6.08s.29-4.35.86-6.19,1.39-3.4,2.47-4.69c1.07-1.28,2.38-2.27,3.94-2.95,1.55-.68,3.33-1.02,5.33-1.02,1.11,0,2.1.11,2.98.32.88.21,1.76.52,2.65.91v-12.76l7.99-1.28v40.68ZM651.58,163.45c0,2.47.55,4.45,1.66,5.95,1.11,1.5,2.75,2.25,4.93,2.25.71,0,1.37-.03,1.98-.08.61-.05,1.11-.12,1.5-.19v-14.53c-.5-.32-1.15-.59-1.96-.8s-1.62-.32-2.44-.32c-3.79,0-5.68,2.57-5.68,7.72Z"/>
        <path class="cls-1" d="M703.52,163.61c0,2.22-.32,4.24-.97,6.09-.64,1.84-1.57,3.41-2.79,4.72-1.22,1.3-2.67,2.31-4.37,3.03-1.7.71-3.6,1.07-5.71,1.07s-3.96-.36-5.65-1.07c-1.7-.72-3.16-1.73-4.37-3.03-1.22-1.3-2.16-2.87-2.84-4.72-.68-1.84-1.02-3.87-1.02-6.09s.35-4.23,1.05-6.06c.7-1.82,1.66-3.37,2.89-4.66,1.23-1.28,2.7-2.28,4.39-3s3.55-1.07,5.55-1.07,3.9.36,5.6,1.07c1.7.72,3.15,1.72,4.37,3,1.22,1.29,2.16,2.84,2.84,4.66.68,1.82,1.02,3.84,1.02,6.06ZM695.37,163.61c0-2.46-.49-4.4-1.47-5.81-.98-1.41-2.38-2.12-4.21-2.12s-3.23.71-4.23,2.12c-1,1.41-1.5,3.35-1.5,5.81s.5,4.42,1.5,5.87c1,1.45,2.41,2.17,4.23,2.17s3.22-.72,4.21-2.17,1.47-3.4,1.47-5.87Z"/>
      </g>
    </g>
  </g>
</svg>