<svg width="48" height="32" viewBox="0 0 48 32" fill="none" xmlns="http://www.w3.org/2000/svg">
<path d="M47.9294 2.5043L48 29.1827C48.0008 29.5371 47.9315 29.8883 47.796 30.2161C47.6605 30.5439 47.4615 30.8419 47.2103 31.0931C46.9591 31.3444 46.6606 31.5439 46.3319 31.6803C46.0032 31.8167 45.6507 31.8874 45.2946 31.8882L2.7888 32C2.43241 32.0008 2.07935 31.9317 1.74981 31.7967C1.42027 31.6616 1.12072 31.4632 0.868267 31.2128C0.615818 30.9624 0.415429 30.665 0.278559 30.3375C0.14169 30.0099 0.0710256 29.6588 0.0706048 29.304L2.06258e-06 2.62887C-0.000852514 1.96241 0.263878 1.32281 0.73614 0.850357C1.2084 0.377899 1.84964 0.111148 2.51922 0.108611L45.4005 8.149e-06C45.7318 -0.000831869 46.06 0.0632793 46.3663 0.188677C46.6727 0.314075 46.9512 0.498305 47.186 0.730851C47.4209 0.963396 47.6074 1.2397 47.7349 1.54399C47.8625 1.84828 47.9285 2.17459 47.9294 2.5043Z" fill="#CBD5E1"/>
<path opacity="0.2" d="M47.9294 2.5043L48 29.1827C48.0008 29.5371 47.9315 29.8883 47.796 30.2161C47.6605 30.5439 47.4615 30.8419 47.2103 31.0931C46.959 31.3443 46.6606 31.5439 46.3319 31.6803C46.0032 31.8167 45.6507 31.8874 45.2946 31.8882L2.7888 32C2.43241 32.0008 2.07935 31.9317 1.74981 31.7967C1.42027 31.6616 1.12072 31.4632 0.868267 31.2128C0.615818 30.9624 0.415429 30.665 0.278559 30.3375C0.14169 30.0099 0.0710256 29.6588 0.0706048 29.3041L2.06258e-06 2.62887C-0.000852514 1.96241 0.263878 1.32281 0.73614 0.850357C1.2084 0.377899 1.84964 0.111148 2.51922 0.108611L45.4005 8.149e-06C45.7318 -0.000831869 46.06 0.0632793 46.3663 0.188677C46.6727 0.314075 46.9512 0.498305 47.186 0.730851C47.4209 0.963396 47.6074 1.2397 47.7349 1.54399C47.8625 1.84828 47.9285 2.17459 47.9294 2.5043Z" fill="#94A3B8"/>
<path d="M11.6897 4.68896L5.38691 4.70546C4.64251 4.7074 4.04064 5.31243 4.04259 6.05683L4.05181 9.57727C4.05376 10.3217 4.65879 10.9235 5.40318 10.9216L11.706 10.9051C12.4504 10.9031 13.0522 10.2981 13.0503 9.55371L13.0411 6.03327C13.0391 5.28888 12.4341 4.68701 11.6897 4.68896Z" fill="#334155"/>
<path d="M26.8453 23.3584L4.08594 23.418L4.08887 24.538L26.8482 24.4784L26.8453 23.3584Z" fill="white"/>
<path d="M20 26H4V27H20V26Z" fill="white"/>
<path d="M31.3706 4.50165H32.5911C32.8381 4.50165 33.0539 4.52965 33.2384 4.58565C33.4261 4.64165 33.5875 4.71741 33.7226 4.81294C33.8609 4.90518 33.9746 5.01224 34.0635 5.13412C34.1558 5.256 34.2282 5.38118 34.2809 5.50965C34.3336 5.63812 34.3715 5.76659 34.3946 5.89506C34.4176 6.02353 34.4292 6.14212 34.4292 6.25082C34.4292 6.47482 34.388 6.69224 34.3056 6.90306C34.2233 7.11059 34.1014 7.29671 33.94 7.46141C33.7786 7.62282 33.5776 7.75294 33.3372 7.85176C33.1 7.95059 32.8249 8 32.512 8H31.3706V4.50165ZM31.8449 7.55529H32.4428C32.6438 7.55529 32.8332 7.52894 33.0111 7.47624C33.1922 7.42024 33.3504 7.33788 33.4854 7.22918C33.6205 7.12047 33.7275 6.98541 33.8066 6.824C33.8856 6.65929 33.9252 6.46824 33.9252 6.25082C33.9252 6.13882 33.9071 6.00871 33.8708 5.86047C33.8346 5.70894 33.7654 5.56565 33.6633 5.43059C33.5645 5.29553 33.4261 5.18188 33.2482 5.08965C33.0704 4.99412 32.8398 4.94635 32.5565 4.94635H31.8449V7.55529ZM35.3345 6.992C35.3345 7.09412 35.3559 7.188 35.3987 7.27365C35.4448 7.356 35.5041 7.42682 35.5766 7.48612C35.649 7.54541 35.733 7.59153 35.8286 7.62447C35.9241 7.65741 36.0229 7.67388 36.125 7.67388C36.2634 7.67388 36.3836 7.64259 36.4857 7.58C36.5879 7.51412 36.6817 7.42847 36.7674 7.32306L37.1034 7.58C36.8563 7.89953 36.5105 8.05929 36.0657 8.05929C35.8813 8.05929 35.7133 8.028 35.5617 7.96541C35.4135 7.90282 35.2867 7.81718 35.1813 7.70847C35.0792 7.59647 35.0001 7.46635 34.9441 7.31812C34.8881 7.16659 34.8601 7.00353 34.8601 6.82894C34.8601 6.65435 34.8897 6.49294 34.949 6.34471C35.0116 6.19318 35.0956 6.06306 35.201 5.95435C35.3097 5.84235 35.4382 5.75506 35.5865 5.69247C35.7347 5.62988 35.8961 5.59859 36.0707 5.59859C36.2782 5.59859 36.4528 5.63482 36.5945 5.70729C36.7394 5.77976 36.858 5.87529 36.9502 5.99388C37.0425 6.10918 37.1083 6.24094 37.1479 6.38918C37.1907 6.53412 37.2121 6.68235 37.2121 6.83388V6.992H35.3345ZM36.7377 6.63624C36.7345 6.53741 36.718 6.44682 36.6883 6.36447C36.662 6.28212 36.6208 6.21129 36.5648 6.152C36.5088 6.08941 36.438 6.04165 36.3523 6.00871C36.27 5.97247 36.1728 5.95435 36.0608 5.95435C35.9521 5.95435 35.8516 5.97576 35.7594 6.01859C35.6705 6.05812 35.5947 6.11082 35.5321 6.17671C35.4695 6.24259 35.4201 6.31671 35.3839 6.39906C35.3509 6.47812 35.3345 6.55718 35.3345 6.63624H36.7377ZM37.7441 4.26447H38.1888V5.99388H38.1987C38.2777 5.872 38.3914 5.77647 38.5396 5.70729C38.6879 5.63482 38.846 5.59859 39.014 5.59859C39.1951 5.59859 39.3582 5.62988 39.5031 5.69247C39.6514 5.75506 39.7766 5.84235 39.8787 5.95435C39.9841 6.06306 40.0648 6.19318 40.1208 6.34471C40.1768 6.49294 40.2048 6.65435 40.2048 6.82894C40.2048 7.00353 40.1768 7.16494 40.1208 7.31318C40.0648 7.46141 39.9841 7.59153 39.8787 7.70353C39.7766 7.81553 39.6514 7.90282 39.5031 7.96541C39.3582 8.028 39.1951 8.05929 39.014 8.05929C38.8559 8.05929 38.701 8.02471 38.5495 7.95553C38.4013 7.88635 38.2843 7.78918 38.1987 7.664H38.1888V8H37.7441V4.26447ZM38.9596 7.64424C39.0782 7.64424 39.1853 7.62447 39.2808 7.58494C39.3763 7.54212 39.457 7.48612 39.5229 7.41694C39.5888 7.34447 39.6399 7.25882 39.6761 7.16C39.7123 7.05788 39.7304 6.94753 39.7304 6.82894C39.7304 6.71035 39.7123 6.60165 39.6761 6.50282C39.6399 6.40071 39.5888 6.31506 39.5229 6.24588C39.457 6.17341 39.3763 6.11741 39.2808 6.07788C39.1853 6.03506 39.0782 6.01365 38.9596 6.01365C38.841 6.01365 38.734 6.03506 38.6384 6.07788C38.5429 6.11741 38.4622 6.17341 38.3963 6.24588C38.3304 6.31506 38.2794 6.40071 38.2431 6.50282C38.2069 6.60165 38.1888 6.71035 38.1888 6.82894C38.1888 6.94753 38.2069 7.05788 38.2431 7.16C38.2794 7.25882 38.3304 7.34447 38.3963 7.41694C38.4622 7.48612 38.5429 7.54212 38.6384 7.58494C38.734 7.62447 38.841 7.64424 38.9596 7.64424ZM40.7994 5.65788H41.2441V8H40.7994V5.65788ZM40.6956 4.81788C40.6956 4.72894 40.7269 4.65318 40.7895 4.59059C40.8554 4.52471 40.9328 4.49176 41.0217 4.49176C41.1107 4.49176 41.1864 4.52471 41.249 4.59059C41.3149 4.65318 41.3478 4.72894 41.3478 4.81788C41.3478 4.90682 41.3149 4.98424 41.249 5.05012C41.1864 5.11271 41.1107 5.144 41.0217 5.144C40.9328 5.144 40.8554 5.11271 40.7895 5.05012C40.7269 4.98424 40.6956 4.90682 40.6956 4.81788ZM43.2069 6.04329H42.5695V7.10565C42.5695 7.17153 42.5711 7.23741 42.5744 7.30329C42.5777 7.36588 42.5892 7.42353 42.609 7.47624C42.632 7.52565 42.665 7.56682 42.7078 7.59976C42.7539 7.62941 42.8198 7.64424 42.9055 7.64424C42.9582 7.64424 43.0125 7.63929 43.0685 7.62941C43.1245 7.61953 43.1756 7.60141 43.2217 7.57506V7.98024C43.169 8.00988 43.0998 8.02965 43.0142 8.03953C42.9318 8.05271 42.8676 8.05929 42.8215 8.05929C42.6502 8.05929 42.5167 8.03624 42.4212 7.99012C42.329 7.94071 42.2598 7.87812 42.2137 7.80235C42.1709 7.72659 42.1445 7.64259 42.1346 7.55035C42.128 7.45482 42.1247 7.35929 42.1247 7.26376V6.04329H41.6109V5.65788H42.1247V5.00071H42.5695V5.65788H43.2069V6.04329Z" fill="#1F2937"/>
</svg>
