<?xml version="1.0" encoding="UTF-8"?>
<svg id="Layer_2" data-name="Layer 2" xmlns="http://www.w3.org/2000/svg" viewBox="0 0 703.52 210.07">
  <defs>
    <style>
      .cls-1 {
        fill: #fff;
      }
    </style>
  </defs>
  <g id="Layer_3" data-name="Layer 3">
    <g>
      <g>
        <path class="cls-1" d="M55.33,126.34c-18.02,0-31.74-5.01-41.18-15.03C4.72,101.28,0,87.05,0,68.61c0-9.17,1.44-17.35,4.32-24.55,2.88-7.2,6.82-13.27,11.83-18.23,5.01-4.96,10.98-8.71,17.91-11.27,6.93-2.56,14.45-3.84,22.55-3.84,4.69,0,8.95.35,12.79,1.04,3.84.69,7.2,1.49,10.08,2.4,2.88.91,5.28,1.84,7.2,2.8,1.92.96,3.3,1.71,4.16,2.24l-7.2,20.15c-3.41-1.81-7.38-3.36-11.91-4.64-4.53-1.28-9.68-1.92-15.43-1.92-3.84,0-7.6.64-11.27,1.92-3.68,1.28-6.93,3.33-9.75,6.16-2.83,2.83-5.09,6.48-6.8,10.96-1.71,4.48-2.56,9.91-2.56,16.31,0,5.12.56,9.89,1.68,14.31,1.12,4.43,2.93,8.24,5.44,11.43,2.5,3.2,5.78,5.73,9.83,7.6,4.05,1.87,8.96,2.8,14.71,2.8,3.62,0,6.88-.21,9.76-.64,2.88-.42,5.44-.93,7.68-1.52,2.24-.58,4.21-1.25,5.92-2,1.7-.74,3.25-1.44,4.64-2.08l6.88,19.99c-3.52,2.13-8.47,4.05-14.87,5.76-6.4,1.7-13.81,2.56-22.23,2.56Z"/>
        <path class="cls-1" d="M138.65,37.74c7.04,0,12.9.8,17.59,2.4,4.69,1.6,8.45,3.89,11.27,6.88,2.82,2.99,4.82,6.61,6,10.88s1.76,9.01,1.76,14.23v49.57c-3.41.75-8.16,1.63-14.23,2.64s-13.43,1.52-22.07,1.52c-5.44,0-10.37-.48-14.79-1.44-4.43-.96-8.24-2.53-11.43-4.72-3.2-2.18-5.65-5.04-7.36-8.56-1.71-3.52-2.56-7.84-2.56-12.96s.99-9.06,2.96-12.47c1.97-3.41,4.61-6.13,7.92-8.16,3.3-2.02,7.09-3.49,11.35-4.4,4.26-.9,8.69-1.36,13.27-1.36,3.09,0,5.84.13,8.24.4,2.4.27,4.34.62,5.84,1.04v-2.24c0-4.05-1.23-7.3-3.68-9.75-2.45-2.45-6.72-3.68-12.79-3.68-4.05,0-8.05.29-11.99.88-3.95.59-7.36,1.41-10.23,2.48l-3.04-19.19c1.38-.43,3.12-.88,5.2-1.36,2.08-.48,4.34-.9,6.8-1.28,2.45-.37,5.04-.69,7.76-.96s5.46-.4,8.24-.4ZM140.57,107.47c2.34,0,4.58-.05,6.72-.16,2.13-.11,3.84-.27,5.12-.48v-18.07c-.96-.21-2.4-.42-4.32-.64-1.92-.21-3.68-.32-5.28-.32-2.24,0-4.35.13-6.32.4-1.97.27-3.7.77-5.2,1.52-1.5.75-2.67,1.76-3.52,3.04-.85,1.28-1.28,2.88-1.28,4.8,0,3.73,1.25,6.32,3.76,7.76,2.5,1.44,5.94,2.16,10.31,2.16Z"/>
        <path class="cls-1" d="M247.56,61.09c-2.13-.53-4.64-1.09-7.52-1.68-2.88-.59-5.97-.88-9.27-.88-1.49,0-3.28.14-5.36.4-2.08.27-3.65.56-4.72.88v64.29h-23.83V44.46c4.26-1.49,9.3-2.9,15.11-4.24,5.81-1.33,12.29-2,19.43-2,1.28,0,2.82.08,4.64.24,1.81.16,3.62.37,5.44.64,1.81.27,3.62.59,5.44.96,1.81.38,3.36.83,4.64,1.36l-4,19.67Z"/>
        <path class="cls-1" d="M336.95,121.38c-2.13.64-4.58,1.25-7.36,1.84-2.77.59-5.68,1.09-8.72,1.52-3.04.43-6.13.77-9.27,1.04-3.15.26-6.16.4-9.04.4-6.93,0-13.11-1.01-18.55-3.04-5.44-2.02-10.02-4.93-13.75-8.72-3.73-3.78-6.58-8.37-8.56-13.75-1.97-5.38-2.96-11.43-2.96-18.15s.85-12.98,2.56-18.47c1.7-5.49,4.16-10.16,7.36-13.99,3.2-3.84,7.12-6.77,11.75-8.8,4.64-2.02,9.94-3.04,15.91-3.04,3.3,0,6.26.32,8.87.96,2.61.64,5.25,1.55,7.92,2.72V3.84l23.83-3.84v121.38ZM283.06,81.4c0,7.36,1.65,13.27,4.96,17.75,3.3,4.48,8.21,6.72,14.71,6.72,2.13,0,4.1-.08,5.92-.24,1.81-.16,3.3-.34,4.48-.56v-43.34c-1.49-.96-3.44-1.76-5.84-2.4-2.4-.64-4.83-.96-7.28-.96-11.3,0-16.95,7.68-16.95,23.03Z"/>
        <path class="cls-1" d="M411.48,126.34c-18.02,0-31.74-5.01-41.18-15.03-9.43-10.02-14.15-24.25-14.15-42.7,0-9.17,1.44-17.35,4.32-24.55,2.88-7.2,6.82-13.27,11.83-18.23,5.01-4.96,10.98-8.71,17.91-11.27,6.93-2.56,14.45-3.84,22.55-3.84,4.69,0,8.95.35,12.79,1.04,3.84.69,7.2,1.49,10.08,2.4,2.88.91,5.28,1.84,7.2,2.8,1.92.96,3.3,1.71,4.16,2.24l-7.2,20.15c-3.41-1.81-7.38-3.36-11.91-4.64-4.53-1.28-9.68-1.92-15.43-1.92-3.84,0-7.6.64-11.27,1.92-3.68,1.28-6.93,3.33-9.75,6.16-2.83,2.83-5.09,6.48-6.8,10.96-1.71,4.48-2.56,9.91-2.56,16.31,0,5.12.56,9.89,1.68,14.31,1.12,4.43,2.93,8.24,5.44,11.43,2.5,3.2,5.78,5.73,9.83,7.6,4.05,1.87,8.96,2.8,14.71,2.8,3.62,0,6.88-.21,9.76-.64,2.88-.42,5.44-.93,7.68-1.52,2.24-.58,4.21-1.25,5.92-2,1.7-.74,3.25-1.44,4.64-2.08l6.88,19.99c-3.52,2.13-8.47,4.05-14.87,5.76-6.4,1.7-13.81,2.56-22.23,2.56Z"/>
        <path class="cls-1" d="M539.74,81.88c0,6.61-.96,12.66-2.88,18.15-1.92,5.49-4.69,10.18-8.31,14.07-3.63,3.89-7.97,6.9-13.03,9.03-5.07,2.13-10.74,3.2-17.03,3.2s-11.81-1.07-16.87-3.2c-5.06-2.13-9.41-5.14-13.03-9.03-3.63-3.89-6.45-8.58-8.48-14.07-2.03-5.49-3.04-11.54-3.04-18.15s1.04-12.63,3.12-18.07c2.08-5.44,4.96-10.07,8.64-13.91,3.68-3.84,8.05-6.82,13.11-8.95,5.06-2.13,10.58-3.2,16.55-3.2s11.65,1.07,16.71,3.2c5.06,2.13,9.41,5.12,13.03,8.95,3.62,3.84,6.45,8.48,8.48,13.91,2.02,5.44,3.04,11.46,3.04,18.07ZM515.43,81.88c0-7.36-1.47-13.14-4.4-17.35-2.93-4.21-7.12-6.32-12.55-6.32s-9.65,2.11-12.63,6.32c-2.99,4.21-4.48,9.99-4.48,17.35s1.49,13.19,4.48,17.51c2.98,4.32,7.2,6.48,12.63,6.48s9.62-2.16,12.55-6.48c2.93-4.32,4.4-10.16,4.4-17.51Z"/>
        <path class="cls-1" d="M608.82,61.09c-2.13-.53-4.64-1.09-7.52-1.68-2.88-.59-5.97-.88-9.27-.88-1.49,0-3.28.14-5.36.4-2.08.27-3.65.56-4.72.88v64.29h-23.83V44.46c4.26-1.49,9.3-2.9,15.11-4.24,5.81-1.33,12.29-2,19.43-2,1.28,0,2.82.08,4.64.24,1.81.16,3.62.37,5.44.64,1.81.27,3.62.59,5.44.96,1.81.38,3.36.83,4.64,1.36l-4,19.67Z"/>
        <path class="cls-1" d="M620.02,82.68c0-7.46,1.15-13.99,3.44-19.59,2.29-5.6,5.3-10.26,9.04-13.99s8.02-6.56,12.87-8.48c4.85-1.92,9.83-2.88,14.95-2.88,11.94,0,21.37,3.65,28.3,10.96,6.93,7.3,10.4,18.05,10.4,32.22,0,1.39-.06,2.91-.16,4.56-.11,1.65-.21,3.12-.32,4.4h-54.05c.53,4.91,2.82,8.8,6.88,11.67,4.05,2.88,9.49,4.32,16.31,4.32,4.37,0,8.66-.4,12.87-1.2,4.21-.8,7.65-1.78,10.32-2.96l3.2,19.35c-1.28.64-2.99,1.28-5.12,1.92-2.13.64-4.5,1.2-7.12,1.68-2.61.48-5.41.88-8.4,1.2-2.99.32-5.97.48-8.96.48-7.57,0-14.15-1.12-19.75-3.36-5.6-2.24-10.24-5.3-13.91-9.2-3.68-3.89-6.4-8.5-8.16-13.83-1.76-5.33-2.64-11.09-2.64-17.27ZM675.99,73.56c-.11-2.02-.46-4-1.04-5.92-.59-1.92-1.49-3.62-2.72-5.12-1.23-1.49-2.77-2.72-4.64-3.68-1.87-.96-4.18-1.44-6.96-1.44s-4.96.46-6.88,1.36c-1.92.91-3.52,2.11-4.8,3.6-1.28,1.49-2.27,3.22-2.96,5.2-.69,1.98-1.2,3.97-1.52,6h31.51Z"/>
      </g>
      <g>
        <path class="cls-1" d="M485.09,183.2c0,2.52-.37,4.8-1.11,6.84-.74,2.04-1.81,3.78-3.21,5.22-1.4,1.44-3.12,2.55-5.16,3.33-2.04.78-4.36,1.17-6.96,1.17-1.08,0-2.21-.05-3.39-.15-1.18-.1-2.34-.23-3.48-.39s-2.23-.35-3.27-.57-1.96-.45-2.76-.69v-44.1l8.94-1.44v15.72c1-.44,2.04-.78,3.12-1.02,1.08-.24,2.24-.36,3.48-.36,2.24,0,4.22.39,5.94,1.17,1.72.78,3.16,1.89,4.32,3.33,1.16,1.44,2.04,3.17,2.64,5.19.6,2.02.9,4.27.9,6.75ZM475.97,182.96c0-5.76-2.12-8.64-6.36-8.64-.92,0-1.83.12-2.73.36s-1.63.54-2.19.9v16.26c.44.08,1,.15,1.68.21.68.06,1.42.09,2.22.09,2.44,0,4.28-.84,5.52-2.52,1.24-1.68,1.86-3.9,1.86-6.66Z"/>
        <path class="cls-1" d="M519.22,167.42c-1.8,6.08-3.69,11.78-5.65,17.1s-4.11,10.48-6.44,15.48c-.84,1.8-1.68,3.33-2.52,4.59-.84,1.26-1.76,2.3-2.76,3.12-1,.82-2.13,1.42-3.39,1.8-1.26.38-2.74.57-4.42.57-1.4,0-2.69-.13-3.87-.39-1.18-.26-2.15-.55-2.91-.87l1.56-7.14c.92.32,1.74.54,2.46.66.72.12,1.48.18,2.28.18,1.6,0,2.83-.43,3.69-1.29.86-.86,1.59-2.05,2.19-3.57-2.04-4-4.08-8.49-6.12-13.47-2.04-4.98-3.96-10.57-5.76-16.77h9.48c.4,1.56.87,3.25,1.42,5.07.54,1.82,1.12,3.66,1.72,5.52.6,1.86,1.22,3.67,1.84,5.43.62,1.76,1.22,3.36,1.78,4.8.52-1.44,1.06-3.04,1.63-4.8.56-1.76,1.12-3.57,1.66-5.43.54-1.86,1.06-3.7,1.57-5.52.5-1.82.95-3.51,1.35-5.07h9.24Z"/>
        <path class="cls-1" d="M534.16,202.63h29.99v7.44h-29.99v-7.44Z"/>
        <path class="cls-1" d="M577.41,198.37c-2.92-.24-5.29-.69-7.11-1.35s-3.17-1.21-4.05-1.65l2.58-6.9c1.4.68,3.07,1.3,5.01,1.86s3.99.84,6.15.84c2.44,0,4.11-.33,5.01-.99s1.35-1.59,1.35-2.79c0-.76-.18-1.41-.54-1.95-.36-.54-.88-1.03-1.56-1.47s-1.54-.87-2.58-1.29-2.24-.87-3.6-1.35c-1.32-.48-2.61-1.01-3.87-1.59s-2.4-1.29-3.42-2.13c-1.02-.84-1.84-1.87-2.46-3.09-.62-1.22-.93-2.69-.93-4.41,0-1.32.19-2.59.57-3.81.38-1.22.97-2.33,1.77-3.33s1.84-1.85,3.12-2.55c1.28-.7,2.8-1.21,4.56-1.53v-6.48h7.56v6.24c2.08.2,3.87.5,5.37.9s2.69.8,3.57,1.2l-1.86,7.2c-1.32-.56-2.85-1.04-4.59-1.44s-3.57-.6-5.49-.6-3.3.32-4.14.96-1.26,1.48-1.26,2.52c0,.64.13,1.19.39,1.65.26.46.67.87,1.23,1.23.56.36,1.25.71,2.07,1.05s1.81.71,2.97,1.11c1.76.64,3.39,1.35,4.89,2.11,1.5.76,2.8,1.63,3.9,2.61,1.1.98,1.96,2.13,2.58,3.45.62,1.32.93,2.86.93,4.62,0,1.2-.18,2.39-.54,3.57s-.96,2.27-1.8,3.27c-.84,1-1.93,1.86-3.27,2.58-1.34.72-2.99,1.24-4.95,1.56v7.32h-7.56v-7.14Z"/>
        <path class="cls-1" d="M629.37,197.89c-1.52.44-3.48.85-5.88,1.23-2.4.38-4.92.57-7.56.57s-4.91-.36-6.69-1.08c-1.78-.72-3.19-1.73-4.23-3.03-1.04-1.3-1.78-2.85-2.22-4.65-.44-1.8-.66-3.78-.66-5.94v-17.58h8.94v16.5c0,2.88.38,4.96,1.14,6.24.76,1.28,2.18,1.92,4.26,1.92.64,0,1.32-.03,2.04-.09s1.36-.13,1.92-.21v-24.35h8.94v30.47Z"/>
        <path class="cls-1" d="M665.6,197.95c-.8.24-1.72.47-2.76.69-1.04.22-2.13.41-3.27.57-1.14.16-2.3.29-3.48.39s-2.31.15-3.39.15c-2.6,0-4.92-.38-6.96-1.14-2.04-.76-3.76-1.85-5.16-3.27-1.4-1.42-2.47-3.14-3.21-5.16-.74-2.02-1.11-4.29-1.11-6.81s.32-4.87.96-6.93,1.56-3.81,2.76-5.25c1.2-1.44,2.67-2.54,4.41-3.3,1.74-.76,3.73-1.14,5.97-1.14,1.24,0,2.35.12,3.33.36.98.24,1.97.58,2.97,1.02v-14.28l8.94-1.44v45.54ZM645.38,182.96c0,2.76.62,4.98,1.86,6.66,1.24,1.68,3.08,2.52,5.52,2.52.8,0,1.54-.03,2.22-.09.68-.06,1.24-.13,1.68-.21v-16.26c-.56-.36-1.29-.66-2.19-.9s-1.81-.36-2.73-.36c-4.24,0-6.36,2.88-6.36,8.64Z"/>
        <path class="cls-1" d="M703.52,183.13c0,2.48-.36,4.75-1.08,6.81-.72,2.06-1.76,3.82-3.12,5.28-1.36,1.46-2.99,2.59-4.89,3.39-1.9.8-4.03,1.2-6.39,1.2s-4.43-.4-6.33-1.2c-1.9-.8-3.53-1.93-4.89-3.39-1.36-1.46-2.42-3.22-3.18-5.28-.76-2.06-1.14-4.33-1.14-6.81s.39-4.74,1.17-6.78c.78-2.04,1.86-3.78,3.24-5.22,1.38-1.44,3.02-2.56,4.92-3.36s3.97-1.2,6.21-1.2,4.37.4,6.27,1.2c1.9.8,3.53,1.92,4.89,3.36,1.36,1.44,2.42,3.18,3.18,5.22.76,2.04,1.14,4.3,1.14,6.78ZM694.4,183.13c0-2.76-.55-4.93-1.65-6.51-1.1-1.58-2.67-2.37-4.71-2.37s-3.62.79-4.74,2.37c-1.12,1.58-1.68,3.75-1.68,6.51s.56,4.95,1.68,6.57c1.12,1.62,2.7,2.43,4.74,2.43s3.61-.81,4.71-2.43,1.65-3.81,1.65-6.57Z"/>
      </g>
    </g>
  </g>
</svg>