<svg width="48" height="32" viewBox="0 0 48 32" fill="none" xmlns="http://www.w3.org/2000/svg">
<path d="M47.9294 2.5043L48 29.1827C48.0008 29.5371 47.9315 29.8883 47.796 30.2161C47.6605 30.5439 47.4615 30.8419 47.2103 31.0931C46.9591 31.3444 46.6606 31.5439 46.3319 31.6803C46.0032 31.8167 45.6507 31.8874 45.2946 31.8882L2.7888 32C2.43241 32.0008 2.07935 31.9317 1.74981 31.7967C1.42027 31.6616 1.12072 31.4632 0.868267 31.2128C0.615818 30.9624 0.415429 30.665 0.278559 30.3375C0.14169 30.0099 0.0710256 29.6588 0.0706048 29.304L2.06258e-06 2.62887C-0.000852514 1.96241 0.263878 1.32281 0.73614 0.850357C1.2084 0.377899 1.84964 0.111148 2.51922 0.108611L45.4005 8.149e-06C45.7318 -0.000831869 46.06 0.0632793 46.3663 0.188677C46.6727 0.314075 46.9512 0.498305 47.186 0.730851C47.4209 0.963396 47.6074 1.2397 47.7349 1.54399C47.8625 1.84828 47.9285 2.17459 47.9294 2.5043Z" fill="#CBD5E1"/>
<path opacity="0.2" d="M47.9294 2.5043L48 29.1827C48.0008 29.5371 47.9315 29.8883 47.796 30.2161C47.6605 30.5439 47.4615 30.8419 47.2103 31.0931C46.959 31.3443 46.6606 31.5439 46.3319 31.6803C46.0032 31.8167 45.6507 31.8874 45.2946 31.8882L2.7888 32C2.43241 32.0008 2.07935 31.9317 1.74981 31.7967C1.42027 31.6616 1.12072 31.4632 0.868267 31.2128C0.615818 30.9624 0.415429 30.665 0.278559 30.3375C0.14169 30.0099 0.0710256 29.6588 0.0706048 29.3041L2.06258e-06 2.62887C-0.000852514 1.96241 0.263878 1.32281 0.73614 0.850357C1.2084 0.377899 1.84964 0.111148 2.51922 0.108611L45.4005 8.149e-06C45.7318 -0.000831869 46.06 0.0632793 46.3663 0.188677C46.6727 0.314075 46.9512 0.498305 47.186 0.730851C47.4209 0.963396 47.6074 1.2397 47.7349 1.54399C47.8625 1.84828 47.9285 2.17459 47.9294 2.5043Z" fill="#081A46"/>
<path d="M11.6897 4.68896L5.38691 4.70546C4.64251 4.7074 4.04064 5.31243 4.04259 6.05683L4.05181 9.57727C4.05376 10.3217 4.65879 10.9235 5.40318 10.9216L11.706 10.9051C12.4504 10.9031 13.0522 10.2981 13.0503 9.55371L13.0411 6.03327C13.0391 5.28888 12.4341 4.68701 11.6897 4.68896Z" fill="#334155"/>
<path d="M26.8453 23.3584L4.08594 23.418L4.08887 24.538L26.8482 24.4784L26.8453 23.3584Z" fill="white"/>
<path d="M20 26H4V27H20V26Z" fill="white"/>
<path d="M26.7856 4.50165H28.0159C28.2399 4.50165 28.4244 4.53294 28.5693 4.59553C28.7143 4.65482 28.8279 4.73224 28.9103 4.82776C28.9959 4.92 29.0552 5.02541 29.0882 5.144C29.1211 5.25929 29.1376 5.37129 29.1376 5.48C29.1376 5.58871 29.1211 5.70235 29.0882 5.82094C29.0552 5.93624 28.9959 6.04165 28.9103 6.13718C28.8279 6.22941 28.7143 6.30682 28.5693 6.36941C28.4244 6.42871 28.2399 6.45835 28.0159 6.45835H27.2599V8H26.7856V4.50165ZM27.2599 6.04329H27.8825C27.9748 6.04329 28.0653 6.03671 28.1543 6.02353C28.2465 6.00706 28.3272 5.97906 28.3964 5.93953C28.4689 5.9 28.5265 5.844 28.5693 5.77153C28.6122 5.69576 28.6336 5.59859 28.6336 5.48C28.6336 5.36141 28.6122 5.26588 28.5693 5.19341C28.5265 5.11765 28.4689 5.06 28.3964 5.02047C28.3272 4.98094 28.2465 4.95459 28.1543 4.94141C28.0653 4.92494 27.9748 4.91671 27.8825 4.91671H27.2599V6.04329ZM29.6009 5.65788H30.0456V6.01859H30.0555C30.0852 5.956 30.1247 5.9 30.1741 5.85059C30.2235 5.79788 30.2779 5.75341 30.3372 5.71718C30.3998 5.68094 30.4673 5.65294 30.5398 5.63318C30.6122 5.61012 30.6847 5.59859 30.7572 5.59859C30.8296 5.59859 30.8955 5.60847 30.9548 5.62824L30.9351 6.10753C30.8988 6.09765 30.8626 6.08941 30.8263 6.08282C30.7901 6.07624 30.7539 6.07294 30.7176 6.07294C30.5002 6.07294 30.3339 6.13388 30.2186 6.25576C30.1033 6.37765 30.0456 6.56706 30.0456 6.824V8H29.6009V5.65788ZM31.6789 6.992C31.6789 7.09412 31.7003 7.188 31.7431 7.27365C31.7892 7.356 31.8485 7.42682 31.921 7.48612C31.9935 7.54541 32.0775 7.59153 32.173 7.62447C32.2685 7.65741 32.3674 7.67388 32.4695 7.67388C32.6078 7.67388 32.7281 7.64259 32.8302 7.58C32.9323 7.51412 33.0262 7.42847 33.1118 7.32306L33.4478 7.58C33.2008 7.89953 32.8549 8.05929 32.4102 8.05929C32.2257 8.05929 32.0577 8.028 31.9062 7.96541C31.758 7.90282 31.6311 7.81718 31.5257 7.70847C31.4236 7.59647 31.3445 7.46635 31.2885 7.31812C31.2325 7.16659 31.2045 7.00353 31.2045 6.82894C31.2045 6.65435 31.2342 6.49294 31.2935 6.34471C31.3561 6.19318 31.4401 6.06306 31.5455 5.95435C31.6542 5.84235 31.7827 5.75506 31.9309 5.69247C32.0791 5.62988 32.2405 5.59859 32.4151 5.59859C32.6227 5.59859 32.7972 5.63482 32.9389 5.70729C33.0838 5.77976 33.2024 5.87529 33.2947 5.99388C33.3869 6.10918 33.4528 6.24094 33.4923 6.38918C33.5351 6.53412 33.5565 6.68235 33.5565 6.83388V6.992H31.6789ZM33.0822 6.63624C33.0789 6.53741 33.0624 6.44682 33.0328 6.36447C33.0064 6.28212 32.9652 6.21129 32.9092 6.152C32.8532 6.08941 32.7824 6.04165 32.6968 6.00871C32.6144 5.97247 32.5172 5.95435 32.4052 5.95435C32.2965 5.95435 32.1961 5.97576 32.1038 6.01859C32.0149 6.05812 31.9391 6.11082 31.8765 6.17671C31.814 6.24259 31.7645 6.31671 31.7283 6.39906C31.6954 6.47812 31.6789 6.55718 31.6789 6.63624H33.0822ZM34.0885 5.65788H34.5332V5.99388H34.5431C34.6288 5.86871 34.7457 5.77153 34.8939 5.70235C35.0455 5.63318 35.2003 5.59859 35.3584 5.59859C35.5396 5.59859 35.7026 5.62988 35.8476 5.69247C35.9958 5.75506 36.121 5.84235 36.2231 5.95435C36.3285 6.06635 36.4092 6.19812 36.4652 6.34965C36.5212 6.49788 36.5492 6.65765 36.5492 6.82894C36.5492 7.00353 36.5212 7.16659 36.4652 7.31812C36.4092 7.46635 36.3285 7.59647 36.2231 7.70847C36.121 7.81718 35.9958 7.90282 35.8476 7.96541C35.7026 8.028 35.5396 8.05929 35.3584 8.05929C35.1904 8.05929 35.0323 8.02471 34.8841 7.95553C34.7358 7.88306 34.6222 7.78588 34.5431 7.664H34.5332V9.39341H34.0885V5.65788ZM35.3041 6.01365C35.1855 6.01365 35.0784 6.03506 34.9829 6.07788C34.8874 6.11741 34.8066 6.17341 34.7408 6.24588C34.6749 6.31506 34.6238 6.40071 34.5876 6.50282C34.5514 6.60165 34.5332 6.71035 34.5332 6.82894C34.5332 6.94753 34.5514 7.05788 34.5876 7.16C34.6238 7.25882 34.6749 7.34447 34.7408 7.41694C34.8066 7.48612 34.8874 7.54212 34.9829 7.58494C35.0784 7.62447 35.1855 7.64424 35.3041 7.64424C35.4226 7.64424 35.5297 7.62447 35.6252 7.58494C35.7208 7.54212 35.8015 7.48612 35.8674 7.41694C35.9332 7.34447 35.9843 7.25882 36.0205 7.16C36.0568 7.05788 36.0749 6.94753 36.0749 6.82894C36.0749 6.71035 36.0568 6.60165 36.0205 6.50282C35.9843 6.40071 35.9332 6.31506 35.8674 6.24588C35.8015 6.17341 35.7208 6.11741 35.6252 6.07788C35.5297 6.03506 35.4226 6.01365 35.3041 6.01365ZM37.1191 5.94447C37.2443 5.82918 37.3892 5.74353 37.5539 5.68753C37.7186 5.62824 37.8833 5.59859 38.048 5.59859C38.2193 5.59859 38.3659 5.62 38.4878 5.66282C38.613 5.70565 38.7151 5.76329 38.7941 5.83576C38.8732 5.90824 38.9309 5.99224 38.9671 6.08776C39.0066 6.18 39.0264 6.27718 39.0264 6.37929V7.57506C39.0264 7.65741 39.028 7.73318 39.0313 7.80235C39.0346 7.87153 39.0396 7.93741 39.0461 8H38.6509C38.641 7.88141 38.636 7.76282 38.636 7.64424H38.6261C38.5273 7.79576 38.4104 7.90282 38.2753 7.96541C38.1403 8.028 37.9838 8.05929 37.8059 8.05929C37.6972 8.05929 37.5934 8.04447 37.4946 8.01482C37.3958 7.98518 37.3085 7.94071 37.2327 7.88141C37.1603 7.82212 37.1026 7.74965 37.0598 7.664C37.017 7.57506 36.9956 7.47294 36.9956 7.35765C36.9956 7.20612 37.0285 7.07929 37.0944 6.97718C37.1636 6.87506 37.2558 6.79271 37.3711 6.73012C37.4897 6.66424 37.6264 6.61812 37.7812 6.59176C37.9393 6.56212 38.1073 6.54729 38.2852 6.54729H38.6113V6.44847C38.6113 6.38918 38.5998 6.32988 38.5767 6.27059C38.5537 6.21129 38.5191 6.15859 38.473 6.11247C38.4269 6.06306 38.3692 6.02518 38.3 5.99882C38.2309 5.96918 38.1485 5.95435 38.053 5.95435C37.9673 5.95435 37.8916 5.96259 37.8257 5.97906C37.7631 5.99553 37.7054 6.01694 37.6527 6.04329C37.6 6.06635 37.5523 6.09435 37.5094 6.12729C37.4666 6.16024 37.4254 6.19153 37.3859 6.22118L37.1191 5.94447ZM38.3741 6.87341C38.2687 6.87341 38.16 6.88 38.048 6.89318C37.9393 6.90306 37.8389 6.92447 37.7466 6.95741C37.6577 6.99035 37.5836 7.03647 37.5243 7.09576C37.4683 7.15506 37.4403 7.23082 37.4403 7.32306C37.4403 7.45812 37.4847 7.55529 37.5737 7.61459C37.6659 7.67388 37.7894 7.70353 37.9443 7.70353C38.0661 7.70353 38.1699 7.68376 38.2556 7.64424C38.3412 7.60141 38.4104 7.54706 38.4631 7.48118C38.5158 7.41529 38.5537 7.34282 38.5767 7.26376C38.5998 7.18141 38.6113 7.10071 38.6113 7.02165V6.87341H38.3741ZM39.7061 5.65788H40.1508V8H39.7061V5.65788ZM39.6023 4.81788C39.6023 4.72894 39.6336 4.65318 39.6962 4.59059C39.7621 4.52471 39.8395 4.49176 39.9284 4.49176C40.0174 4.49176 40.0931 4.52471 40.1557 4.59059C40.2216 4.65318 40.2545 4.72894 40.2545 4.81788C40.2545 4.90682 40.2216 4.98424 40.1557 5.05012C40.0931 5.11271 40.0174 5.144 39.9284 5.144C39.8395 5.144 39.7621 5.11271 39.6962 5.05012C39.6336 4.98424 39.6023 4.90682 39.6023 4.81788ZM43.2056 8H42.7609V7.664H42.751C42.6653 7.78918 42.5468 7.88635 42.3952 7.95553C42.247 8.02471 42.0938 8.05929 41.9357 8.05929C41.7545 8.05929 41.5898 8.028 41.4416 7.96541C41.2966 7.90282 41.1715 7.81553 41.066 7.70353C40.9639 7.59153 40.8849 7.46141 40.8289 7.31318C40.7729 7.16494 40.7449 7.00353 40.7449 6.82894C40.7449 6.65435 40.7729 6.49294 40.8289 6.34471C40.8849 6.19318 40.9639 6.06306 41.066 5.95435C41.1715 5.84235 41.2966 5.75506 41.4416 5.69247C41.5898 5.62988 41.7545 5.59859 41.9357 5.59859C42.1037 5.59859 42.2618 5.63482 42.41 5.70729C42.5583 5.77647 42.6719 5.872 42.751 5.99388H42.7609V4.26447H43.2056V8ZM41.99 7.64424C42.1086 7.64424 42.2157 7.62447 42.3112 7.58494C42.4068 7.54212 42.4875 7.48612 42.5533 7.41694C42.6192 7.34447 42.6703 7.25882 42.7065 7.16C42.7428 7.05788 42.7609 6.94753 42.7609 6.82894C42.7609 6.71035 42.7428 6.60165 42.7065 6.50282C42.6703 6.40071 42.6192 6.31506 42.5533 6.24588C42.4875 6.17341 42.4068 6.11741 42.3112 6.07788C42.2157 6.03506 42.1086 6.01365 41.99 6.01365C41.8715 6.01365 41.7644 6.03506 41.6689 6.07788C41.5733 6.11741 41.4926 6.17341 41.4268 6.24588C41.3609 6.31506 41.3098 6.40071 41.2736 6.50282C41.2373 6.60165 41.2192 6.71035 41.2192 6.82894C41.2192 6.94753 41.2373 7.05788 41.2736 7.16C41.3098 7.25882 41.3609 7.34447 41.4268 7.41694C41.4926 7.48612 41.5733 7.54212 41.6689 7.58494C41.7644 7.62447 41.8715 7.64424 41.99 7.64424Z" fill="#1F2937"/>
</svg>
