<svg width="59" height="32" viewBox="0 0 59 32" fill="none" xmlns="http://www.w3.org/2000/svg">
<rect width="59" height="32" rx="5" fill="#F1F5F9"/>
<ellipse cx="16.4345" cy="16" rx="6.93452" ry="6.90706" fill="#EE312A"/>
<path fill-rule="evenodd" clip-rule="evenodd" d="M25.4351 13.9244C25.7949 13.9871 26.2111 14.1386 26.4728 14.3007C27.1191 14.7031 27.572 15.3805 27.7693 16.2374C27.8684 16.6735 27.8813 16.7999 27.8803 17.3693C27.8783 17.6616 27.8704 17.9405 27.8614 17.9917L27.8446 18.0814L25.5243 18.0872L23.2059 18.091V18.1412C23.2059 18.2165 23.2723 18.4278 23.3427 18.5716C23.6153 19.1293 24.1525 19.47 24.9097 19.5693C25.108 19.5964 25.6521 19.5964 25.9187 19.5693C26.3489 19.5279 26.7692 19.4555 27.1874 19.3522C27.3113 19.3223 27.4174 19.3001 27.4223 19.304C27.4283 19.3107 27.6315 20.8469 27.6315 20.8962C27.6315 20.9174 27.3896 20.9965 27.0943 21.0747C26.3905 21.2541 25.4945 21.3449 24.8225 21.3034C23.9503 21.2474 23.2832 21.0486 22.6945 20.6655C22.4249 20.4899 22.0591 20.1367 21.8778 19.8752C21.4119 19.2007 21.2018 18.3844 21.2295 17.3606C21.2414 16.937 21.2712 16.717 21.3653 16.3599C21.5358 15.7144 21.8341 15.2039 22.302 14.7629C22.8134 14.2814 23.4785 13.9852 24.2615 13.8916C24.5093 13.8607 25.1853 13.881 25.4351 13.9244ZM46.7961 13.8904C47.5603 13.9696 48.2016 14.2764 48.6456 14.7724C49.166 15.3543 49.4584 16.186 49.498 17.1973C49.5069 17.4569 49.4851 17.8844 49.4534 18.0349L49.4435 18.0899H47.1222C45.1924 18.0899 44.7999 18.0928 44.7999 18.1131C44.7999 18.1854 44.8832 18.4373 44.9535 18.583C45.2182 19.1205 45.7276 19.4524 46.4611 19.5585C47.033 19.6435 48.0142 19.5537 48.8419 19.3405C48.942 19.3154 49.0252 19.2951 49.0292 19.299C49.0332 19.3048 49.2046 20.6567 49.2314 20.8834C49.2383 20.9375 48.598 21.116 48.0935 21.199C47.6089 21.279 47.2887 21.3041 46.7812 21.3041C46.4403 21.3041 46.242 21.2964 46.0676 21.2733C44.7067 21.1005 43.7552 20.4907 43.2438 19.4688C43.0624 19.1041 42.9445 18.7075 42.8701 18.2067C42.8552 18.1024 42.8463 17.8535 42.8463 17.5032C42.8473 16.9175 42.8661 16.7409 42.9752 16.3337C43.111 15.8252 43.3736 15.335 43.7106 14.9528C44.225 14.3719 45.016 13.984 45.8733 13.8904C46.0775 13.8692 46.588 13.8673 46.7961 13.8904ZM33.0729 13.9508C33.3118 13.9846 33.6012 14.0386 33.7142 14.0734L33.7895 14.0965L33.6339 14.8974C33.5506 15.3375 33.4763 15.7012 33.4733 15.7051C33.4694 15.708 33.4436 15.7032 33.4139 15.6926C33.1819 15.6057 32.5862 15.5575 32.2988 15.6019C32.0342 15.6433 31.6694 15.7804 31.5505 15.8855C31.5198 15.9126 31.5178 16.0621 31.5178 18.5266V21.1368H30.48H29.4433V17.9129V14.6919L29.5969 14.5983C30.1728 14.2442 30.823 14.028 31.5911 13.9344C31.8786 13.9006 32.7716 13.9093 33.0729 13.9508ZM36.9608 14.0994C36.9667 14.1196 36.9826 14.1843 37.0054 14.2702C37.0242 14.3445 37.047 14.4361 37.0718 14.5288C37.377 15.7185 37.8528 17.1515 38.3325 18.3306L38.4862 18.705L38.5565 18.541C39.0293 17.4361 39.5774 15.7996 39.9253 14.4564L40.0324 14.0415L41.0701 14.0366L42.1089 14.0328L42.0623 14.1987C41.9879 14.4651 41.8581 14.8945 41.7292 15.3036C41.081 17.3368 40.296 19.2753 39.5031 20.7845L39.3237 21.1271L38.4971 21.1319C37.8379 21.1357 37.6665 21.1319 37.6516 21.1126C37.6238 21.0798 37.1917 20.2364 37.049 19.9354C36.2887 18.3306 35.4879 16.1943 34.9715 14.3927C34.9249 14.2287 34.8823 14.081 34.8773 14.0637C34.8684 14.0347 34.9249 14.0328 35.9052 14.0328H36.9419L36.9608 14.0994ZM24.4177 15.2961C23.932 15.3675 23.5881 15.6242 23.369 16.0796C23.2937 16.235 23.2045 16.536 23.2045 16.6316V16.6837H24.6417H26.0769L26.064 16.5978C26.0392 16.4347 25.9619 16.2041 25.8678 16.0169C25.7845 15.8548 25.7468 15.8036 25.6021 15.6637C25.4654 15.5267 25.4079 15.4852 25.278 15.4254C25.1918 15.3839 25.0669 15.3385 25.0005 15.325C24.8449 15.2884 24.5584 15.2758 24.4177 15.2961ZM45.5915 15.4256C45.764 15.3465 45.8522 15.3195 46.0247 15.2963C46.1843 15.2741 46.4509 15.2906 46.6194 15.332C47.0079 15.4295 47.2874 15.6601 47.4827 16.0442C47.5689 16.2188 47.666 16.5257 47.666 16.6318V16.6839H46.2289H44.7937L44.8066 16.5981C44.8303 16.435 44.9086 16.2044 45.0028 16.0172C45.0861 15.855 45.1227 15.8039 45.2674 15.664C45.4062 15.527 45.4597 15.4874 45.5915 15.4256Z" fill="#00579F"/>
<path fill-rule="evenodd" clip-rule="evenodd" d="M13.6023 12.5807C14.0694 13.8261 14.736 15.4775 15.2924 16.7702C15.6594 17.6209 16.1613 18.7209 16.1762 18.7067C16.1931 18.6878 16.6007 17.788 16.8894 17.1252C17.5033 15.7221 18.281 13.8044 18.7412 12.5666L18.8483 12.2805H20.0396C20.6962 12.2805 21.2338 12.2842 21.2338 12.2899C21.2338 12.3126 20.9501 13.0424 20.7428 13.5599C20.0416 15.2972 19.2411 17.077 18.3335 18.922C18.0628 19.4744 17.3367 20.8926 17.2048 21.1277L17.1066 21.3042L16.1683 21.309L15.229 21.3127L14.9899 20.8595C13.5338 18.0845 12.0896 14.9195 11.1712 12.4731L11.0988 12.2805L12.296 12.2842L13.4932 12.2899L13.6023 12.5807Z" fill="white"/>
</svg>
