<svg width="46" height="32" viewBox="0 0 46 32" fill="none" xmlns="http://www.w3.org/2000/svg">
<rect width="46" height="32" rx="5" fill="#F1F5F9"/>
<path d="M20.9994 20.7129H18.5697L20.0894 11.3173H22.5189L20.9994 20.7129Z" fill="#00579F"/>
<path d="M29.8097 11.547C29.3304 11.3569 28.5703 11.147 27.6304 11.147C25.231 11.147 23.5414 12.4264 23.531 14.2554C23.5111 15.6049 24.7408 16.3544 25.6604 16.8044C26.6005 17.2642 26.92 17.5643 26.92 17.9741C26.9104 18.6036 26.1604 18.8937 25.4609 18.8937C24.4908 18.8937 23.9711 18.7441 23.1812 18.3939L22.8613 18.2438L22.5213 20.3529C23.0911 20.6125 24.141 20.8429 25.231 20.853C27.7804 20.853 29.4402 19.5934 29.4598 17.6443C29.4695 16.5747 28.8202 15.7552 27.4204 15.0855C26.5706 14.6556 26.0501 14.3657 26.0501 13.9258C26.0601 13.526 26.4903 13.1164 27.4496 13.1164C28.2395 13.0963 28.8198 13.2862 29.2595 13.4761L29.4792 13.5759L29.8097 11.547Z" fill="#00579F"/>
<path d="M33.0407 17.3844C33.2408 16.8446 34.0108 14.7556 34.0108 14.7556C34.0007 14.7756 34.2105 14.2058 34.3304 13.8561L34.5002 14.6656C34.5002 14.6656 34.9604 16.9146 35.0603 17.3844C34.6805 17.3844 33.5206 17.3844 33.0407 17.3844ZM36.0399 11.3173H34.1605C33.581 11.3173 33.1406 11.4871 32.8906 12.0969L29.2816 20.7128H31.831C31.831 20.7128 32.2507 19.5531 32.3409 19.3034C32.6206 19.3034 35.1007 19.3034 35.4605 19.3034C35.5302 19.6332 35.7504 20.7128 35.7504 20.7128H38L36.0399 11.3173Z" fill="#00579F"/>
<path d="M16.5433 11.3173L14.1639 17.7242L13.9038 16.4248C13.4639 14.9255 12.0843 13.2965 10.5446 12.4865L12.7241 20.7029H15.2935L19.1125 11.3173H16.5433Z" fill="#00579F"/>
<path d="M11.9491 11.3173H8.03999L8 11.5072C11.0494 12.287 13.0689 14.1666 13.8986 16.4258L13.0488 12.1072C12.9089 11.5071 12.479 11.3371 11.9491 11.3173Z" fill="#00579F"/>
</svg>
