
<svg width="23" height="24" viewBox="0 0 23 24" fill="none" xmlns="http://www.w3.org/2000/svg">
<path d="M8.96696 16.625V8.89508" stroke="#6B7280" stroke-width="1.2" stroke-linecap="round" stroke-linejoin="round"/>
<path d="M4.79167 8.89508V16.625" stroke="#6B7280" stroke-width="1.2" stroke-linecap="round" stroke-linejoin="round"/>
<path d="M10.5417 16.625H3.83333L2.875 18.5417V19.5H10.5417" stroke="#6B7280" stroke-width="1.2" stroke-linecap="round" stroke-linejoin="round"/>
<path fill-rule="evenodd" clip-rule="evenodd" d="M20.125 6.01433L11.5 2.25L2.875 6.01433V8.89508H20.125V6.01433Z" stroke="#6B7280" stroke-width="1.2" stroke-linecap="round" stroke-linejoin="round"/>
<path d="M20.1242 19.0208L20.1252 13.2708" stroke="#6B7280" stroke-width="1.2" stroke-linecap="round" stroke-linejoin="round"/>
<path d="M13.4167 13.2708V19.0208" stroke="#6B7280" stroke-width="1.2" stroke-linecap="round" stroke-linejoin="round"/>
<path d="M20.1248 13.2708C20.1248 12.4761 18.6222 11.8333 16.7707 11.8333C14.9192 11.8333 13.4175 12.4771 13.4165 13.2708" stroke="#6B7280" stroke-width="1.2" stroke-linecap="round" stroke-linejoin="round"/>
<path d="M13.4165 19.0208C13.4165 19.8156 14.9192 20.4583 16.7707 20.4583C18.6222 20.4583 20.1239 19.8145 20.1248 19.0208" stroke="#6B7280" stroke-width="1.2" stroke-linecap="round" stroke-linejoin="round"/>
<path d="M13.4165 13.2708C13.4165 14.0656 14.9192 14.7083 16.7707 14.7083C18.6222 14.7083 20.1239 14.0645 20.1248 13.2708" stroke="#6B7280" stroke-width="1.2" stroke-linecap="round" stroke-linejoin="round"/>
<path d="M13.4165 16.1458C13.4165 16.9406 14.9192 17.5833 16.7707 17.5833C18.6222 17.5833 20.1239 16.9395 20.1248 16.1458" stroke="#6B7280" stroke-width="1.2" stroke-linecap="round" stroke-linejoin="round"/>
</svg>
