<svg width="23" height="24" viewBox="0 0 23 24" fill="none" xmlns="http://www.w3.org/2000/svg">
<path fill-rule="evenodd" clip-rule="evenodd" d="M7.42708 11.8333H4.79167C3.73271 11.8333 2.875 10.9756 2.875 9.91668V5.12501C2.875 4.06605 3.73271 3.20834 4.79167 3.20834H7.42708C8.48604 3.20834 9.34375 4.06605 9.34375 5.12501V9.91668C9.34375 10.9756 8.48604 11.8333 7.42708 11.8333Z" fill="white" stroke="white" stroke-width="1.3" stroke-linecap="round" stroke-linejoin="round"/>
<path fill-rule="evenodd" clip-rule="evenodd" d="M7.42708 20.4583H4.79167C3.73271 20.4583 2.875 19.6006 2.875 18.5417V18.0625C2.875 17.0036 3.73271 16.1458 4.79167 16.1458H7.42708C8.48604 16.1458 9.34375 17.0036 9.34375 18.0625V18.5417C9.34375 19.6006 8.48604 20.4583 7.42708 20.4583Z" fill="white" stroke="white" stroke-width="1.3" stroke-linecap="round" stroke-linejoin="round"/>
<path fill-rule="evenodd" clip-rule="evenodd" d="M15.5729 11.8333H18.2083C19.2673 11.8333 20.125 12.6911 20.125 13.75V18.5417C20.125 19.6006 19.2673 20.4583 18.2083 20.4583H15.5729C14.514 20.4583 13.6562 19.6006 13.6562 18.5417V13.75C13.6562 12.6911 14.514 11.8333 15.5729 11.8333Z" fill="white" stroke="white" stroke-width="1.3" stroke-linecap="round" stroke-linejoin="round"/>
<path fill-rule="evenodd" clip-rule="evenodd" d="M15.5729 3.20834H18.2083C19.2673 3.20834 20.125 4.06605 20.125 5.12501V5.60418C20.125 6.66314 19.2673 7.52084 18.2083 7.52084H15.5729C14.514 7.52084 13.6562 6.66314 13.6562 5.60418V5.12501C13.6562 4.06605 14.514 3.20834 15.5729 3.20834Z" fill="white" stroke="white" stroke-width="1.3" stroke-linecap="round" stroke-linejoin="round"/>
</svg>
