<svg width="24" height="24" viewBox="0 0 24 24" fill="none" xmlns="http://www.w3.org/2000/svg">
<path fill-rule="evenodd" clip-rule="evenodd" d="M12.001 4.99805V4.99805C16.42 4.99805 20.002 8.58005 20.002 13V13C20.002 17.419 16.42 21.001 12.001 21.001V21.001C7.58202 21.001 3.99902 17.419 3.99902 13V13C3.99902 8.58105 7.58102 4.99805 12.001 4.99805Z" stroke="#dd9000" stroke-width="1.5" stroke-linecap="round" stroke-linejoin="round"/>
<path d="M12.001 13.444V8.99805" stroke="#dd9000" stroke-width="1.5" stroke-linecap="round" stroke-linejoin="round"/>
<path d="M3.44995 5.80906L6.44995 3.28906" stroke="#dd9000" stroke-width="1.5" stroke-linecap="round" stroke-linejoin="round"/>
<path d="M20.5601 5.82078L17.5601 3.30078" stroke="#dd9000" stroke-width="1.5" stroke-linecap="round" stroke-linejoin="round"/>
<path d="M12 16.6273C11.917 16.6273 11.85 16.6943 11.851 16.7773C11.851 16.8603 11.918 16.9273 12.001 16.9273C12.084 16.9273 12.151 16.8603 12.151 16.7773C12.151 16.6943 12.083 16.6273 12 16.6273" stroke="#dd9000" stroke-width="1.5" stroke-linecap="round" stroke-linejoin="round"/>
</svg>
