<svg width="24" height="24" viewBox="0 0 24 24" fill="none" xmlns="http://www.w3.org/2000/svg">
<path d="M12 2.99609V4.49672" stroke="red" stroke-width="1.5" stroke-linecap="round" stroke-linejoin="round"/>
<path d="M15.7489 5.50763L16.5019 4.20312" stroke="red" stroke-width="1.5" stroke-linecap="round" stroke-linejoin="round"/>
<path d="M18.4927 8.25171L19.7972 7.49871" stroke="red" stroke-width="1.5" stroke-linecap="round" stroke-linejoin="round"/>
<path d="M19.5031 12.0002H21.0037" stroke="red" stroke-width="1.5" stroke-linecap="round" stroke-linejoin="round"/>
<path d="M2.99622 12.0002H4.49684" stroke="red" stroke-width="1.5" stroke-linecap="round" stroke-linejoin="round"/>
<path d="M5.50726 8.25171L4.20276 7.49871" stroke="red" stroke-width="1.5" stroke-linecap="round" stroke-linejoin="round"/>
<path d="M8.2511 5.50763L7.4981 4.20312" stroke="red" stroke-width="1.5" stroke-linecap="round" stroke-linejoin="round"/>
<path d="M12 19.5029V21.0036" stroke="red" stroke-width="1.5" stroke-linecap="round" stroke-linejoin="round"/>
<path d="M7.4981 19.7977L8.2511 18.4932" stroke="red" stroke-width="1.5" stroke-linecap="round" stroke-linejoin="round"/>
<path d="M5.50726 15.7487L4.20276 16.5017" stroke="red" stroke-width="1.5" stroke-linecap="round" stroke-linejoin="round"/>
<path d="M19.7972 16.5017L18.4927 15.7487" stroke="red" stroke-width="1.5" stroke-linecap="round" stroke-linejoin="round"/>
<path d="M12 11.6688V8.39844" stroke="red" stroke-width="1.5" stroke-linecap="round" stroke-linejoin="round"/>
<path d="M12 15.2796C11.9116 15.2796 11.8399 15.3513 11.8399 15.4397V15.4417C11.8416 15.5304 11.9146 15.601 12.0033 15.5997C12.092 15.5985 12.163 15.5257 12.162 15.437C12.1611 15.3483 12.0887 15.2771 12 15.2776" stroke="red" stroke-width="1.5" stroke-linecap="round" stroke-linejoin="round"/>
<path d="M15.7489 18.4932L16.5019 19.7977" stroke="red" stroke-width="1.5" stroke-linecap="round" stroke-linejoin="round"/>
</svg>
