<svg width="23" height="24" viewBox="0 0 23 24" fill="none" xmlns="http://www.w3.org/2000/svg">
<path d="M5.3263 9.68956L5.05126 8.66702C4.7743 7.64256 5.38284 6.58935 6.40826 6.31623L16.0328 3.75173C17.0486 3.48148 18.1028 4.09002 18.3769 5.10489L20.0578 11.3427C20.3338 12.3671 19.7243 13.4204 18.7008 13.6935L16.6749 14.233" stroke="#6B7280" stroke-width="1.2" stroke-linecap="round" stroke-linejoin="round"/>
<path fill-rule="evenodd" clip-rule="evenodd" d="M4.79167 19.9792H14.7583C15.8173 19.9792 16.675 19.1215 16.675 18.0625V11.6062C16.675 10.5473 15.8173 9.68954 14.7583 9.68954H4.79167C3.73271 9.68954 2.875 10.5473 2.875 11.6062V18.0625C2.875 19.1215 3.73367 19.9792 4.79167 19.9792Z" stroke="#6B7280" stroke-width="1.2" stroke-linecap="round" stroke-linejoin="round"/>
<path d="M2.875 13.5967H16.675" stroke="#6B7280" stroke-width="1.2" stroke-linecap="round" stroke-linejoin="round"/>
</svg>
