<svg width="24" height="24" viewBox="0 0 24 24" fill="none" xmlns="http://www.w3.org/2000/svg">
<path fill-rule="evenodd" clip-rule="evenodd" d="M15.3 21H8.7C5.5 21 3 18.4 3 15.3V8.7C3 5.5 5.5 3 8.7 3H15.4C18.5 3 21 5.5 21 8.7V15.4C21 18.4 18.5 21 15.3 21Z" stroke="#323232" stroke-width="1.5" stroke-linecap="round" stroke-linejoin="round"/>
<path fill-rule="evenodd" clip-rule="evenodd" d="M6.90002 12.7992C6.90002 11.4992 7.90002 10.4992 9.10002 10.2992C9.50002 9.09922 10.6 8.19922 12 8.19922C13.7 8.19922 15 9.59922 15 11.1992C16.1 11.1992 17 12.0992 17 13.1992C17 14.2992 16.1 15.1992 15 15.1992H9.50002C8.10002 15.2992 6.90002 14.1992 6.90002 12.7992Z" stroke="#323232" stroke-width="1.5" stroke-linecap="round" stroke-linejoin="round"/>
</svg>
