<svg width="24" height="24" viewBox="0 0 24 24" fill="none" xmlns="http://www.w3.org/2000/svg">
<path d="M8.294 10.7046C8.294 10.5416 8.162 10.4106 8 10.4106C7.837 10.4116 7.706 10.5436 7.706 10.7056C7.706 10.8686 7.838 10.9996 8 10.9996C8.162 10.9996 8.294 10.8676 8.294 10.7046" stroke="#6B7280" stroke-width="1.5" stroke-linecap="round" stroke-linejoin="round"/>
<path d="M8 10.411V5.5C8 4.119 9.119 3 10.5 3V3C11.881 3 13 4.119 13 5.5V6.072" stroke="#6B7280" stroke-width="1.5" stroke-linecap="round" stroke-linejoin="round"/>
<path d="M10.162 15.1833C10.969 15.7413 11.945 16.0723 13 16.0723C13.662 16.0723 14.29 15.9373 14.868 15.7033L17.877 18.7083C18.065 18.8953 18.319 19.0003 18.583 19.0003H20C20.552 19.0003 21 18.5523 21 18.0003V16.5883C21 16.3223 20.894 16.0683 20.706 15.8803L17.662 12.8403C17.872 12.2893 18 11.6973 18 11.0723C18 8.31127 15.761 6.07227 13 6.07227C12.216 6.07227 11.484 6.26827 10.824 6.59027" stroke="#6B7280" stroke-width="1.5" stroke-linecap="round" stroke-linejoin="round"/>
<path fill-rule="evenodd" clip-rule="evenodd" d="M6.00399 15.2671C5.44699 15.0241 4.92099 14.6851 4.46499 14.2291C2.51199 12.2761 2.51199 9.11111 4.46499 7.15811C6.41799 5.20511 9.58299 5.20511 11.536 7.15811C13.489 9.11111 13.489 12.2761 11.536 14.2291C11.082 14.6831 10.558 15.0201 10.004 15.2631L10.007 19.5001C10.007 19.7661 9.90199 20.0201 9.71399 20.2081L8.71599 21.2061C8.32499 21.5971 7.69199 21.5971 7.30199 21.2061L6.29999 20.2041C6.11299 20.0171 6.00699 19.7631 6.00699 19.4981L6.00399 15.2671Z" stroke="#6B7280" stroke-width="1.5" stroke-linecap="round" stroke-linejoin="round"/>
</svg>
