<svg width="23" height="24" viewBox="0 0 23 24" fill="none" xmlns="http://www.w3.org/2000/svg">
<path fill-rule="evenodd" clip-rule="evenodd" d="M7.42708 11.8332H4.79167C3.73271 11.8332 2.875 10.9755 2.875 9.91649V5.12483C2.875 4.06587 3.73271 3.20816 4.79167 3.20816H7.42708C8.48604 3.20816 9.34375 4.06587 9.34375 5.12483V9.91649C9.34375 10.9755 8.48604 11.8332 7.42708 11.8332Z" stroke="#6B7280" stroke-width="1.3" stroke-linecap="round" stroke-linejoin="round"/>
<path fill-rule="evenodd" clip-rule="evenodd" d="M7.42708 20.4583H4.79167C3.73271 20.4583 2.875 19.6006 2.875 18.5416V18.0625C2.875 17.0035 3.73271 16.1458 4.79167 16.1458H7.42708C8.48604 16.1458 9.34375 17.0035 9.34375 18.0625V18.5416C9.34375 19.6006 8.48604 20.4583 7.42708 20.4583Z" stroke="#6B7280" stroke-width="1.3" stroke-linecap="round" stroke-linejoin="round"/>
<path fill-rule="evenodd" clip-rule="evenodd" d="M15.5729 11.8334H18.2083C19.2673 11.8334 20.125 12.6911 20.125 13.7501V18.5417C20.125 19.6007 19.2673 20.4584 18.2083 20.4584H15.5729C14.514 20.4584 13.6562 19.6007 13.6562 18.5417V13.7501C13.6562 12.6911 14.514 11.8334 15.5729 11.8334Z" stroke="#6B7280" stroke-width="1.3" stroke-linecap="round" stroke-linejoin="round"/>
<path fill-rule="evenodd" clip-rule="evenodd" d="M15.5729 3.20816H18.2083C19.2673 3.20816 20.125 4.06587 20.125 5.12483V5.60399C20.125 6.66295 19.2673 7.52066 18.2083 7.52066H15.5729C14.514 7.52066 13.6562 6.66295 13.6562 5.60399V5.12483C13.6562 4.06587 14.514 3.20816 15.5729 3.20816Z" stroke="#6B7280" stroke-width="1.3" stroke-linecap="round" stroke-linejoin="round"/>
</svg>
