<svg width="24" height="24" viewBox="0 0 24 24" fill="none" xmlns="http://www.w3.org/2000/svg">
<path fill-rule="evenodd" clip-rule="evenodd" d="M3.99609 4.99805C3.99609 4.99894 3.99608 5.00326 3.99915 5.01334C4.00254 5.02448 4.01092 5.0465 4.03117 5.07948C4.07361 5.14862 4.16017 5.25257 4.32233 5.38037C4.65251 5.64058 5.19226 5.91865 5.94836 6.17068C7.45012 6.67127 9.58839 6.99805 11.9961 6.99805C14.4038 6.99805 16.5421 6.67127 18.0438 6.17068C18.7999 5.91865 19.3397 5.64058 19.6699 5.38037C19.832 5.25257 19.9186 5.14862 19.961 5.07948C19.9813 5.0465 19.9896 5.02448 19.993 5.01334C19.9961 5.00326 19.9961 4.999 19.9961 4.99811C19.9961 4.99738 19.9962 4.99311 19.993 4.98275C19.9896 4.97161 19.9813 4.9496 19.961 4.91661C19.9186 4.84747 19.832 4.74352 19.6699 4.61572C19.3397 4.35551 18.7999 4.07745 18.0438 3.82541C16.5421 3.32482 14.4038 2.99805 11.9961 2.99805C9.58839 2.99805 7.45012 3.32482 5.94836 3.82541C5.19226 4.07745 4.65251 4.35551 4.32233 4.61572C4.16017 4.74352 4.07361 4.84747 4.03117 4.91661C4.01092 4.9496 4.00254 4.97161 3.99915 4.98275C3.99608 4.99284 3.99609 4.99716 3.99609 4.99805ZM5.31591 1.92804C7.07151 1.34284 9.43324 0.998047 11.9961 0.998047C14.5589 0.998047 16.9207 1.34284 18.6763 1.92804C19.5489 2.2189 20.3271 2.58728 20.9078 3.0449C21.4772 3.49364 21.9961 4.1461 21.9961 4.99805C21.9961 5.84999 21.4772 6.50246 20.9078 6.95119C20.3271 7.40881 19.5489 7.77719 18.6763 8.06805C16.9207 8.65325 14.5589 8.99805 11.9961 8.99805C9.43324 8.99805 7.07151 8.65325 5.31591 8.06805C4.44333 7.77719 3.66506 7.40881 3.08438 6.95119C2.51499 6.50246 1.99609 5.84999 1.99609 4.99805C1.99609 4.1461 2.51499 3.49364 3.08438 3.0449C3.66506 2.58728 4.44333 2.2189 5.31591 1.92804Z" fill="#081a46"/>
<path fill-rule="evenodd" clip-rule="evenodd" d="M2.99609 10.998C3.54838 10.998 3.99609 11.4458 3.99609 11.998C3.99609 11.9999 3.99618 12.0051 3.99949 12.0161C4.00304 12.0278 4.01154 12.0501 4.03167 12.0832C4.07381 12.1523 4.15958 12.256 4.32028 12.3833C4.64768 12.6428 5.18397 12.9204 5.93776 13.172C7.435 13.6719 9.57286 13.998 11.9961 13.998C14.4193 13.998 16.5572 13.6719 18.0544 13.172C18.8082 12.9204 19.3445 12.6428 19.6719 12.3833C19.8326 12.256 19.9184 12.1523 19.9605 12.0832C19.9807 12.0501 19.9891 12.0278 19.9927 12.0161C19.996 12.0051 19.9961 11.9999 19.9961 11.998C19.9961 11.4458 20.4438 10.998 20.9961 10.998C21.5484 10.998 21.9961 11.4458 21.9961 11.998C21.9961 12.8474 21.4829 13.5001 20.914 13.9509C20.3352 14.4096 19.559 14.7782 18.6878 15.0691C16.935 15.6542 14.5729 15.998 11.9961 15.998C9.41933 15.998 7.05719 15.6542 5.30443 15.0691C4.43322 14.7782 3.65701 14.4096 3.07816 13.9509C2.50929 13.5001 1.99609 12.8474 1.99609 11.998C1.99609 11.4458 2.44381 10.998 2.99609 10.998Z" fill="#081a46"/>
<path fill-rule="evenodd" clip-rule="evenodd" d="M2.99609 3.99805C3.54838 3.99805 3.99609 4.44576 3.99609 4.99805V18.998C3.99609 18.9999 3.99618 19.0051 3.99949 19.0161C4.00304 19.0278 4.01154 19.0501 4.03167 19.0832C4.07381 19.1523 4.15958 19.256 4.32028 19.3833C4.64768 19.6428 5.18397 19.9204 5.93776 20.172C7.435 20.6719 9.57286 20.998 11.9961 20.998C14.4193 20.998 16.5572 20.6719 18.0544 20.172C18.8082 19.9204 19.3445 19.6428 19.6719 19.3833C19.8326 19.256 19.9184 19.1523 19.9605 19.0832C19.9807 19.0501 19.9891 19.0278 19.9927 19.0161C19.996 19.0051 19.9961 18.9999 19.9961 18.998V4.99811C19.9961 4.44583 20.4438 3.99805 20.9961 3.99805C21.5484 3.99805 21.9961 4.44576 21.9961 4.99805V18.998C21.9961 19.8474 21.4829 20.5001 20.914 20.9509C20.3352 21.4096 19.559 21.7782 18.6878 22.0691C16.935 22.6542 14.5729 22.998 11.9961 22.998C9.41933 22.998 7.05719 22.6542 5.30443 22.0691C4.43322 21.7782 3.65701 21.4096 3.07816 20.9509C2.50929 20.5001 1.99609 19.8474 1.99609 18.998V4.99805C1.99609 4.44576 2.44381 3.99805 2.99609 3.99805Z" fill="#081a46"/>
</svg>
