<svg width="24" height="24" viewBox="0 0 24 24" fill="none" xmlns="http://www.w3.org/2000/svg">
<path d="M6.74751 8.9986C6.74751 8.58438 6.41173 8.2486 5.99751 8.2486C5.5833 8.2486 5.24751 8.58438 5.24751 8.9986H6.74751ZM18.7525 8.9986C18.7525 8.58438 18.4167 8.2486 18.0025 8.2486C17.5883 8.2486 17.2525 8.58438 17.2525 8.9986H18.7525ZM14.7508 9.99901C14.7508 9.5848 14.4151 9.24901 14.0008 9.24901C13.5866 9.24901 13.2508 9.5848 13.2508 9.99901H14.7508ZM13.2508 17.0019C13.2508 17.4161 13.5866 17.7519 14.0008 17.7519C14.4151 17.7519 14.7508 17.4161 14.7508 17.0019H13.2508ZM10.7492 9.99901C10.7492 9.5848 10.4134 9.24901 9.99918 9.24901C9.58497 9.24901 9.24918 9.5848 9.24918 9.99901H10.7492ZM9.24918 17.0019C9.24918 17.4161 9.58497 17.7519 9.99918 17.7519C10.4134 17.7519 10.7492 17.4161 10.7492 17.0019H9.24918ZM4.49689 5.24735C4.08267 5.24735 3.74689 5.58313 3.74689 5.99735C3.74689 6.41156 4.08267 6.74735 4.49689 6.74735V5.24735ZM19.5031 6.74735C19.9174 6.74735 20.2531 6.41156 20.2531 5.99735C20.2531 5.58313 19.9174 5.24735 19.5031 5.24735V6.74735ZM7.28683 5.76017C7.15585 6.15313 7.36822 6.57787 7.76117 6.70886C8.15413 6.83984 8.57887 6.62747 8.70986 6.23452L7.28683 5.76017ZM8.54257 4.36467L9.25408 4.60184L9.25414 4.60167L8.54257 4.36467ZM10.4414 2.9961L10.4412 3.7461H10.4414V2.9961ZM13.5587 2.9961V3.7461L13.5596 3.74609L13.5587 2.9961ZM15.4595 4.36467L16.1712 4.12828L16.171 4.12767L15.4595 4.36467ZM15.2899 6.23373C15.4205 6.62683 15.845 6.83967 16.2381 6.70912C16.6312 6.57857 16.844 6.15406 16.7135 5.76096L15.2899 6.23373ZM5.24751 8.9986V19.0028H6.74751V8.9986H5.24751ZM5.24751 19.0028C5.24751 20.522 6.4791 21.7536 7.99835 21.7536V20.2536C7.30753 20.2536 6.74751 19.6936 6.74751 19.0028H5.24751ZM7.99835 21.7536H16.0017V20.2536H7.99835V21.7536ZM16.0017 21.7536C17.5209 21.7536 18.7525 20.522 18.7525 19.0028H17.2525C17.2525 19.6936 16.6925 20.2536 16.0017 20.2536V21.7536ZM18.7525 19.0028V8.9986H17.2525V19.0028H18.7525ZM13.2508 9.99901V17.0019H14.7508V9.99901H13.2508ZM9.24918 9.99901V17.0019H10.7492V9.99901H9.24918ZM4.49689 6.74735H19.5031V5.24735H4.49689V6.74735ZM8.70986 6.23452L9.25408 4.60184L7.83106 4.1275L7.28683 5.76017L8.70986 6.23452ZM9.25414 4.60167C9.42435 4.09065 9.90256 3.74597 10.4412 3.7461L10.4415 2.2461C9.25701 2.24581 8.20531 3.00383 7.831 4.12767L9.25414 4.60167ZM10.4414 3.7461H13.5587V2.2461H10.4414V3.7461ZM13.5596 3.74609C14.0987 3.74543 14.5775 4.09021 14.7479 4.60167L16.171 4.12767C15.7964 3.00287 14.7433 2.24463 13.5577 2.2461L13.5596 3.74609ZM14.7477 4.60105L15.2899 6.23373L16.7135 5.76096L16.1712 4.12828L14.7477 4.60105Z" fill="#323232"/>
</svg>
