<svg width="31" height="31" viewBox="0 0 31 31" fill="none" xmlns="http://www.w3.org/2000/svg">
<path d="M13.1137 10.6988C14.2121 11.7971 14.2121 13.5779 13.1137 14.6762C12.0154 15.7746 10.2346 15.7746 9.13626 14.6762C8.03791 13.5779 8.03791 11.7971 9.13626 10.6988C10.2346 9.60041 12.0154 9.60041 13.1137 10.6988" stroke="#5753C9" stroke-width="1.07143" stroke-linecap="round" stroke-linejoin="round"/>
<path fill-rule="evenodd" clip-rule="evenodd" d="M3 23.625V7.42625C3 6.0175 4.1425 4.875 5.55125 4.875H25.5C26.8812 4.875 28 5.99375 28 7.375V23.625C28 25.0062 26.8812 26.125 25.5 26.125H5.5C4.11875 26.125 3 25.0062 3 23.625Z" stroke="#5753C9" stroke-width="1.07143" stroke-linecap="round" stroke-linejoin="round"/>
<path d="M19.25 12.375H24.25" stroke="#5753C9" stroke-width="1.07143" stroke-linecap="round" stroke-linejoin="round"/>
<path d="M22.25 17.375H19.25" stroke="#5753C9" stroke-width="1.07143" stroke-linecap="round" stroke-linejoin="round"/>
<path d="M15.6188 21.125C15.4 20.5762 15.0625 20.0837 14.6288 19.6825V19.6825C13.895 19.0025 12.9325 18.625 11.9325 18.625H10.3175C9.31754 18.625 8.35504 19.0025 7.62129 19.6825V19.6825C7.18754 20.0837 6.85004 20.5762 6.63129 21.125" stroke="#5753C9" stroke-width="1.07143" stroke-linecap="round" stroke-linejoin="round"/>
</svg>
