<svg width="24" height="24" viewBox="0 0 24 24" fill="none" xmlns="http://www.w3.org/2000/svg">
<path d="M13.914 16.62C13.287 16.879 12.638 17 12 17C9.239 17 7 14.761 7 12C7 9.239 9.239 7 12 7C14.761 7 17 9.239 17 12V12.833C17 13.696 16.3 14.395 15.438 14.395C14.576 14.395 13.876 13.695 13.876 12.833V12C13.876 10.964 13.037 10.125 12.001 10.125V10.125C10.965 10.125 10.126 10.964 10.126 12C10.126 13.036 10.965 13.875 12.001 13.875C13.037 13.875 13.876 13.036 13.876 12" stroke="#323232" stroke-width="1.5" stroke-linecap="round" stroke-linejoin="round"/>
<path fill-rule="evenodd" clip-rule="evenodd" d="M5 3H19C20.105 3 21 3.895 21 5V19C21 20.105 20.105 21 19 21H5C3.895 21 3 20.105 3 19V5C3 3.895 3.895 3 5 3Z" stroke="#323232" stroke-width="1.5" stroke-linecap="round" stroke-linejoin="round"/>
</svg>
