<svg width="24" height="24" viewBox="0 0 24 24" fill="none" xmlns="http://www.w3.org/2000/svg">
<path fill-rule="evenodd" clip-rule="evenodd" d="M9.99915 11.46L13.3165 8.13263C12.5588 6.14751 13.2968 3.90308 15.0846 2.75488C16.8725 1.60669 19.2205 1.86931 20.7105 3.38413C22.2005 4.89895 22.4243 7.25095 21.2468 9.01962C20.0692 10.7883 17.8129 11.4891 15.8406 10.6987L12.5392 14.0101H9.99915V11.46Z" stroke="#80808093" stroke-width="1.5" stroke-linecap="round" stroke-linejoin="round"/>
<path d="M17.6273 6.50216C17.6273 6.4331 17.5713 6.37711 17.5023 6.37711C17.4332 6.37711 17.3772 6.4331 17.3772 6.50216C17.3772 6.57123 17.4332 6.62721 17.5023 6.62721C17.5713 6.62721 17.6273 6.57123 17.6273 6.50216" stroke="#80808093" stroke-width="1.5" stroke-linecap="round" stroke-linejoin="round"/>
<path d="M9.99913 3.22656C5.65261 4.21321 2.68208 8.23147 3.0134 12.6762C3.34473 17.121 6.87817 20.6545 11.3229 20.9858C15.7677 21.3171 19.786 18.3466 20.7726 14" stroke="#80808093" stroke-width="1.5" stroke-linecap="round" stroke-linejoin="round"/>
</svg>
