<svg width="24" height="24" viewBox="0 0 24 24" fill="none" xmlns="http://www.w3.org/2000/svg">
<path d="M11.1246 12.0041H15.3024" stroke="#323232" stroke-width="1.5" stroke-linecap="round" stroke-linejoin="round"/>
<path d="M11.1246 15.9958L17.1271 16.0008" stroke="#323232" stroke-width="1.5" stroke-linecap="round" stroke-linejoin="round"/>
<rect x="2.99622" y="2.99609" width="18.0075" height="18.0075" rx="2" stroke="#323232" stroke-width="1.5" stroke-linecap="round" stroke-linejoin="round"/>
<path d="M11.1246 7.9924H17.1271" stroke="#323232" stroke-width="1.5" stroke-linecap="round" stroke-linejoin="round"/>
<path d="M7.12195 7.74816C6.98395 7.74871 6.87248 7.86093 6.87285 7.99892C6.87321 8.13692 6.98528 8.24855 7.12328 8.24836C7.26128 8.24818 7.37305 8.13626 7.37305 7.99826C7.37332 7.93167 7.34692 7.86775 7.29974 7.82076C7.25256 7.77377 7.18853 7.74762 7.12195 7.74816" stroke="#323232" stroke-width="1.5" stroke-linecap="round" stroke-linejoin="round"/>
<path d="M7.12195 11.7482C6.98395 11.7487 6.87248 11.8609 6.87285 11.9989C6.87321 12.1369 6.98528 12.2485 7.12328 12.2484C7.26128 12.2482 7.37305 12.1363 7.37305 11.9983C7.37332 11.9317 7.34692 11.8677 7.29974 11.8208C7.25256 11.7738 7.18853 11.7476 7.12195 11.7482" stroke="#323232" stroke-width="1.5" stroke-linecap="round" stroke-linejoin="round"/>
<path d="M7.12195 15.7501C6.98395 15.7507 6.87248 15.8629 6.87285 16.0009C6.87321 16.1389 6.98528 16.2505 7.12328 16.2503C7.26128 16.2501 7.37305 16.1382 7.37305 16.0002C7.37332 15.9336 7.34692 15.8697 7.29974 15.8227C7.25256 15.7757 7.18853 15.7496 7.12195 15.7501" stroke="#323232" stroke-width="1.5" stroke-linecap="round" stroke-linejoin="round"/>
</svg>
