<svg width="24" height="24" viewBox="0 0 24 24" fill="none" xmlns="http://www.w3.org/2000/svg">
<path d="M12 21.0036C7.02733 21.0036 2.99622 16.9725 2.99622 11.9998C2.99622 7.02721 7.02733 2.99609 12 2.99609C16.9726 2.99609 21.0037 7.02721 21.0037 11.9998" stroke="#323232" stroke-width="1.5" stroke-linecap="round" stroke-linejoin="round"/>
<path d="M3.50946 8.99923H20.4906" stroke="#323232" stroke-width="1.5" stroke-linecap="round" stroke-linejoin="round"/>
<path d="M3.51044 15.0012H12" stroke="#323232" stroke-width="1.5" stroke-linecap="round" stroke-linejoin="round"/>
<path d="M16.0017 12.0006C16.0092 9.20566 15.2601 6.46082 13.8338 4.05726C13.4563 3.40136 12.7573 2.99707 12.0005 2.99707C11.2438 2.99707 10.5447 3.40136 10.1672 4.05726C7.27604 8.95853 7.27604 15.0436 10.1672 19.9449C10.5463 20.5994 11.2446 21.0032 12.001 21.0053" stroke="#323232" stroke-width="1.5" stroke-linecap="round" stroke-linejoin="round"/>
<path d="M18.0025 14.001C20.2126 14.001 22.0042 15.7926 22.0042 18.0026C22.0042 20.2127 20.2126 22.0043 18.0025 22.0043C15.7925 22.0043 14.0009 20.2127 14.0009 18.0026C14.0009 15.7926 15.7925 14.001 18.0025 14.001" stroke="#323232" stroke-width="1.5" stroke-linecap="round" stroke-linejoin="round"/>
<path d="M19.089 17.9581C19.0646 17.9581 19.0449 17.9778 19.0448 18.0021C19.0448 18.0264 19.0645 18.0461 19.0888 18.0462H19.089C19.1047 18.0462 19.1192 18.0379 19.1271 18.0242C19.135 18.0106 19.135 17.9939 19.1272 17.9802C19.1194 17.9666 19.1049 17.9582 19.0891 17.9581H19.089" stroke="#323232" stroke-width="1.5" stroke-linecap="round" stroke-linejoin="round"/>
<path d="M16.9151 17.9581C16.8907 17.9581 16.871 17.9778 16.871 18.0021V18.0021C16.8705 18.027 16.8902 18.0476 16.915 18.0481C16.9399 18.0487 16.9605 18.029 16.961 18.0041C16.9616 17.9793 16.9419 17.9587 16.9171 17.9581H16.9161" stroke="#323232" stroke-width="1.5" stroke-linecap="round" stroke-linejoin="round"/>
</svg>
