<svg width="24" height="24" viewBox="0 0 24 24" fill="none" xmlns="http://www.w3.org/2000/svg">
<path d="M21.0037 14.0007V19.0028C21.0037 20.1082 20.1083 21.0036 19.0029 21.0036H4.99705C3.89159 21.0036 2.99622 20.1082 2.99622 19.0028V4.99693C2.99622 3.89147 3.89159 2.99609 4.99705 2.99609H10.9995" stroke="#323232" stroke-width="1.5" stroke-linecap="round" stroke-linejoin="round"/>
<path d="M6.99789 2.99609V21.0036" stroke="#323232" stroke-width="1.5" stroke-linecap="round" stroke-linejoin="round"/>
<path d="M18.1425 7.12275C18.1425 6.97669 18.0235 6.85864 17.8774 6.85864C17.7313 6.85964 17.6123 6.97769 17.6123 7.12375C17.6123 7.26981 17.7313 7.38886 17.8774 7.38786C18.0235 7.38786 18.1425 7.26981 18.1425 7.12275" stroke="#323232" stroke-width="1.5" stroke-linecap="round" stroke-linejoin="round"/>
<path fill-rule="evenodd" clip-rule="evenodd" d="M10.9996 11.6665L14.0408 8.61618C13.4716 7.13757 13.7767 5.39884 14.9662 4.20635C16.5759 2.59268 19.187 2.59268 20.7967 4.20635C22.4063 5.82002 22.4063 8.43611 20.7967 10.0508C19.5952 11.2553 17.8384 11.5574 16.3538 10.9662L13.3285 14.0004H10.9996V11.6665Z" stroke="#323232" stroke-width="1.5" stroke-linecap="round" stroke-linejoin="round"/>
</svg>
