<svg width="24" height="24" viewBox="0 0 24 24" fill="none" xmlns="http://www.w3.org/2000/svg">
<path fill-rule="evenodd" clip-rule="evenodd" d="M9.41797 17.3729V15.9589H11.186L12.687 14.4579L14.759 15.3379C15.51 15.6569 16.379 15.4879 16.955 14.9109L19.898 11.9679C20.475 11.3909 20.643 10.5219 20.325 9.77193L18.823 6.23593C18.621 5.75893 18.241 5.37993 17.764 5.17693L14.228 3.67493C13.477 3.35593 12.609 3.52493 12.032 4.10193L9.08897 7.04493C8.51297 7.62093 8.34397 8.48993 8.66297 9.24093L9.51997 11.2599L3.49597 17.2839V20.4659H6.67797L8.00397 19.1399V17.3719H9.41797V17.3729Z" stroke="#323232" stroke-width="1.5" stroke-linecap="round" stroke-linejoin="round"/>
<path d="M14.3759 8.89317C14.1369 8.89417 13.9429 9.08817 13.9439 9.32717C13.9439 9.56617 14.1389 9.76017 14.3779 9.75917C14.6169 9.75917 14.8109 9.56517 14.8109 9.32617C14.8109 9.08717 14.6169 8.89317 14.3779 8.89317" stroke="#323232" stroke-width="1.5" stroke-linecap="round" stroke-linejoin="round"/>
</svg>
