<svg width="24" height="24" viewBox="0 0 24 24" fill="none" xmlns="http://www.w3.org/2000/svg">
<path d="M17 13.86V12" stroke="#4B5563" stroke-width="1.5" stroke-linecap="round" stroke-linejoin="round"/>
<path d="M14 13.86V12" stroke="#4B5563" stroke-width="1.5" stroke-linecap="round" stroke-linejoin="round"/>
<path d="M10.414 10.5857C11.195 11.3668 11.195 12.6327 10.414 13.4137C9.63299 14.1947 8.36699 14.1947 7.58599 13.4137C6.80499 12.6327 6.80499 11.3668 7.58599 10.5857C8.36699 9.80475 9.63299 9.80475 10.414 10.5857" stroke="#4B5563" stroke-width="1.5" stroke-linecap="round" stroke-linejoin="round"/>
<path d="M17 12H11" stroke="#4B5563" stroke-width="1.5" stroke-linecap="round" stroke-linejoin="round"/>
<path fill-rule="evenodd" clip-rule="evenodd" d="M19 21H5C3.895 21 3 20.105 3 19V5C3 3.895 3.895 3 5 3H19C20.105 3 21 3.895 21 5V19C21 20.105 20.105 21 19 21Z" stroke="#4B5563" stroke-width="1.5" stroke-linecap="round" stroke-linejoin="round"/>
</svg>
