<svg width="24" height="24" viewBox="0 0 24 24" fill="none" xmlns="http://www.w3.org/2000/svg">
<path d="M5.99747 13.1523C4.1597 13.9767 2.99622 15.1692 2.99622 16.5007C2.99622 18.9868 7.02689 21.0026 12 21.0026C16.973 21.0026 21.0037 18.9868 21.0037 16.5007C21.0037 15.1692 19.8402 13.9767 18.0025 13.1523" stroke="#323232" stroke-width="1.5" stroke-linecap="round" stroke-linejoin="round"/>
<path d="M15.6535 17.002C14.5694 17.7074 13.2923 18.0571 12 18.0024C10.7078 18.0571 9.43061 17.7074 8.3465 17.002" stroke="#323232" stroke-width="1.5" stroke-linecap="round" stroke-linejoin="round"/>
<path d="M14.2009 3.90783C15.0928 4.79965 15.3596 6.1409 14.877 7.30614C14.3943 8.47139 13.2573 9.23115 11.996 9.23115C10.7348 9.23115 9.59771 8.47139 9.11507 7.30614C8.63242 6.1409 8.89924 4.79965 9.7911 3.90783C10.3758 3.32282 11.1689 2.99414 11.996 2.99414C12.8231 2.99414 13.6163 3.32282 14.2009 3.90783" stroke="#323232" stroke-width="1.5" stroke-linecap="round" stroke-linejoin="round"/>
<path d="M12 9.23047V15.0009" stroke="#323232" stroke-width="1.5" stroke-linecap="round" stroke-linejoin="round"/>
</svg>
