<svg width="24" height="24" viewBox="0 0 24 24" fill="none" xmlns="http://www.w3.org/2000/svg">
<g id="Group">
<path id="Path" fill-rule="evenodd" clip-rule="evenodd" d="M12 4.77519V19.2239C12.0002 19.7636 11.7553 20.2742 11.3343 20.6119C10.9134 20.9496 10.3619 21.0779 9.83507 20.9607L5.38922 19.9722C4.57557 19.7916 3.99664 19.07 3.99664 18.2365V5.7636C3.99664 4.92981 4.57613 4.20806 5.39022 4.02788L9.83608 3.03947C10.3626 2.92241 10.9138 3.05066 11.3345 3.38814C11.7552 3.72562 12 4.23584 12 4.77519Z" stroke="#323232" stroke-width="1.5" stroke-linecap="round" stroke-linejoin="round"/>
<path id="Path_2" d="M8.99874 13.0204V11.0195" stroke="#323232" stroke-width="1.5" stroke-linecap="round" stroke-linejoin="round"/>
<path id="Path_3" d="M20.0033 7.99876V5.95591C20.0034 5.42521 19.7927 4.91621 19.4174 4.54095C19.0422 4.16569 18.5332 3.95493 18.0025 3.95508H15.0012" stroke="#323232" stroke-width="1.5" stroke-linecap="round" stroke-linejoin="round"/>
<path id="Path_4" d="M20.0033 16.002V18.0028C20.0034 18.5335 19.7927 19.0425 19.4174 19.4178C19.0422 19.793 18.5332 20.0038 18.0025 20.0036H15.0012" stroke="#323232" stroke-width="1.5" stroke-linecap="round" stroke-linejoin="round"/>
<path id="Path_5" d="M15.0012 12.0002H20.0033" stroke="#323232" stroke-width="1.5" stroke-linecap="round" stroke-linejoin="round"/>
<path id="Path_6" d="M18.0025 14.0007L20.0033 11.9999L18.0025 9.99902" stroke="#323232" stroke-width="1.5" stroke-linecap="round" stroke-linejoin="round"/>
</g>
</svg>
