<svg width="31" height="31" viewBox="0 0 31 31" fill="none" xmlns="http://www.w3.org/2000/svg">
<path d="M19.8133 0.00266127C19.573 0.0121989 19.3412 0.0551183 19.0997 0.114729L2.76894 4.06331C0.837213 4.53304 -0.371316 6.4668 0.103206 8.38506L2.39293 17.6628C2.53168 18.2154 2.80183 18.727 3.18077 19.1547C3.55971 19.5824 4.0364 19.9138 4.57092 20.1211V17.8857C4.57092 14.5988 7.26549 11.9247 10.5775 11.9247H25.707L23.4545 2.72208C23.2553 1.92213 22.7842 1.21484 22.1207 0.719453C21.4571 0.22407 20.6418 -0.02909 19.8121 0.00266127H19.8133ZM21.2765 5.14464L22.2532 9.20529L18.1987 10.1734L17.1848 6.14967L21.2765 5.14464ZM10.5775 14.3091C8.58814 14.3091 6.97357 15.9114 6.97357 17.8857V27.4234C6.97357 29.3977 8.58814 31 10.5775 31H27.396C29.3854 31 31 29.3977 31 27.4234V17.8857C31 15.9114 29.3854 14.3091 27.396 14.3091H10.5775ZM10.5775 16.2095H27.396C28.3223 16.2095 29.0851 16.9666 29.0851 17.8857V19.0779H8.88847V17.8857C8.88847 16.9666 9.65131 16.2095 10.5775 16.2095ZM8.88847 22.6546H29.0851V27.4234C29.0851 28.3426 28.3223 29.0996 27.396 29.0996H10.5775C10.1303 29.0971 9.70219 28.9197 9.38597 28.6059C9.06976 28.2921 8.891 27.8672 8.88847 27.4234V22.6546Z" fill="#081A46"/>
</svg>
