<svg width="24" height="24" viewBox="0 0 24 24" fill="none" xmlns="http://www.w3.org/2000/svg">
<path d="M21.4701 4.35L20.1301 3.79V12.82L22.5601 6.96C22.9701 5.94 22.5001 4.77 21.4701 4.35ZM1.97013 8.05L6.93013 20C7.07618 20.3636 7.32532 20.6765 7.64689 20.9004C7.96846 21.1243 8.34846 21.2493 8.74013 21.26C9.00013 21.26 9.27013 21.21 9.53013 21.1L16.9001 18.05C17.6501 17.74 18.1101 17 18.1301 16.26C18.1401 16 18.0901 15.71 18.0001 15.45L13.0001 3.5C12.8593 3.1337 12.6111 2.81844 12.2882 2.59542C11.9653 2.37241 11.5826 2.25202 11.1901 2.25C10.9301 2.25 10.6701 2.31 10.4201 2.4L3.06013 5.45C2.57089 5.65035 2.18124 6.03678 1.97684 6.52433C1.77244 7.01189 1.77003 7.56066 1.97013 8.05ZM18.1201 4.25C18.1201 3.71957 17.9094 3.21086 17.5343 2.83579C17.1593 2.46071 16.6506 2.25 16.1201 2.25H14.6701L18.1201 10.59" fill="#081A46"/>
</svg>
