<svg width="24" height="24" viewBox="0 0 24 24" fill="none" xmlns="http://www.w3.org/2000/svg">
<path d="M10.667 21L12 19.667L10.667 18.334" stroke="#323232" stroke-width="1.5" stroke-linecap="round" stroke-linejoin="round"/>
<path d="M20.889 14.0059C21.592 14.5379 22 15.1379 22 15.7779C22 17.4139 19.4 18.8109 15.722 19.3859" stroke="#323232" stroke-width="1.5" stroke-linecap="round" stroke-linejoin="round"/>
<path d="M3.111 14.0059C2.408 14.5379 2 15.1379 2 15.7779C2 17.9259 6.477 19.6669 12 19.6669" stroke="#323232" stroke-width="1.5" stroke-linecap="round" stroke-linejoin="round"/>
<path d="M9.59998 3V5.16C9.59998 5.557 9.86898 5.88 10.2 5.88H13.8C14.131 5.88 14.4 5.557 14.4 5.16V3" stroke="#323232" stroke-width="1.5" stroke-linecap="round" stroke-linejoin="round"/>
<path d="M6 15V5.4C6 4.074 7.074 3 8.4 3H15.6C16.926 3 18 4.074 18 5.4V15" stroke="#323232" stroke-width="1.5" stroke-linecap="round" stroke-linejoin="round"/>
</svg>
