<svg width="24" height="24" viewBox="0 0 24 24" fill="none" xmlns="http://www.w3.org/2000/svg">
<path fill-rule="evenodd" clip-rule="evenodd" d="M10 10.4473H14C14.55 10.4473 15 10.8973 15 11.4473V14.5003C15 15.0523 14.552 15.5003 14 15.5003H10C9.448 15.5003 9 15.0523 9 14.5003V11.4473C9 10.8953 9.448 10.4473 10 10.4473Z" stroke="#081A46" stroke-width="1.5" stroke-linecap="round" stroke-linejoin="round"/>
<path d="M10.316 10.447V9.184C10.316 8.254 11.07 7.5 12 7.5C12.93 7.5 13.684 8.254 13.684 9.184V10.445" stroke="#081A46" stroke-width="1.5" stroke-linecap="round" stroke-linejoin="round"/>
<path fill-rule="evenodd" clip-rule="evenodd" d="M5.973 5.06675L11.315 3.12075C11.757 2.95975 12.242 2.95975 12.684 3.12075L18.026 5.06675C19.212 5.49875 20 6.62475 20 7.88575V12.7578C20 16.3388 18.172 17.8078 12.995 20.7388C12.378 21.0878 11.622 21.0878 11.005 20.7388C5.828 17.8078 4 16.3388 4 12.7578V7.88575C4 6.62475 4.788 5.49875 5.973 5.06675Z" stroke="#081A46" stroke-width="1.5" stroke-linecap="round" stroke-linejoin="round"/>
</svg>
