<svg width="20" height="20" viewBox="0 0 20 20" fill="none" xmlns="http://www.w3.org/2000/svg">
<path d="M17.5 9.16667V15.8333C17.5 16.7542 16.7542 17.5 15.8333 17.5H4.16667C3.24583 17.5 2.5 16.7542 2.5 15.8333V4.16667C2.5 3.24583 3.24583 2.5 4.16667 2.5H10" stroke="#374151" stroke-width="1.25" stroke-linecap="round" stroke-linejoin="round"/>
<path fill-rule="evenodd" clip-rule="evenodd" d="M7.5 12.4998L10.125 12.1756C10.3092 12.1531 10.4808 12.069 10.6125 11.9381L16.9717 5.57896C17.6758 4.87479 17.6758 3.73312 16.9717 3.02812V3.02812C16.2675 2.32396 15.1258 2.32396 14.4208 3.02812L8.12083 9.32812C7.99333 9.45562 7.91083 9.62062 7.885 9.79979L7.5 12.4998Z" stroke="#374151" stroke-width="1.25" stroke-linecap="round" stroke-linejoin="round"/>
</svg>
