<svg width="36" height="36" viewBox="0 0 36 36" fill="none" xmlns="http://www.w3.org/2000/svg">
<circle cx="18" cy="18" r="18" fill="#F9FAFB"/>
<circle cx="18" cy="18" r="18" stroke="#E5E7EB"/>
<path fill-rule="evenodd" clip-rule="evenodd" d="M19.0082 11.3578C18.6938 11.0435 18.1842 11.0435 17.8699 11.3578C17.5556 11.6721 17.5556 12.1818 17.8699 12.4961L22.13 16.7562H12.8049C12.3604 16.7562 12 17.1166 12 17.5611C12 18.0056 12.3604 18.366 12.8049 18.366H22.13L17.8699 22.6261C17.5556 22.9404 17.5556 23.4501 17.8699 23.7644C18.1842 24.0787 18.6938 24.0787 19.0082 23.7644L24.6423 18.1302C24.9566 17.8159 24.9566 17.3063 24.6423 16.992L19.0082 11.3578Z" fill="#9FA6B2"/>
</svg>
