<svg width="16" height="16" viewBox="0 0 16 16" fill="none" xmlns="http://www.w3.org/2000/svg">
<path d="M11.9141 3.49957C11.8106 3.20723 11.6191 2.95413 11.3658 2.77512C11.1126 2.59612 10.8101 2.5 10.5 2.5C10.1899 2.5 9.88739 2.59612 9.63416 2.77512C9.38092 2.95413 9.1894 3.20723 9.08594 3.49957H1.5V4.49957H9.08594C9.1894 4.79192 9.38092 5.04502 9.63416 5.22402C9.88739 5.40303 10.1899 5.49915 10.5 5.49915C10.8101 5.49915 11.1126 5.40303 11.3658 5.22402C11.6191 5.04502 11.8106 4.79192 11.9141 4.49957H14.5V3.49957H11.9141ZM5.5 6.49957C5.18993 6.50001 4.88759 6.59636 4.63443 6.77539C4.38127 6.95442 4.18968 7.20737 4.08594 7.49957H1.5V8.49957H4.08594C4.1894 8.79192 4.38093 9.04501 4.63416 9.22402C4.88739 9.40303 5.18989 9.49915 5.5 9.49915C5.81011 9.49915 6.11261 9.40303 6.36584 9.22402C6.61907 9.04501 6.8106 8.79192 6.91406 8.49957H14.5V7.49957H6.91406C6.81032 7.20737 6.61873 6.95442 6.36557 6.77539C6.11241 6.59636 5.81007 6.50001 5.5 6.49957ZM10.5 10.4996C10.1899 10.5 9.88759 10.5964 9.63443 10.7754C9.38127 10.9544 9.18968 11.2074 9.08594 11.4996H1.5V12.4996H9.08594C9.1894 12.7919 9.38092 13.045 9.63416 13.224C9.88739 13.403 10.1899 13.4991 10.5 13.4991C10.8101 13.4991 11.1126 13.403 11.3658 13.224C11.6191 13.045 11.8106 12.7919 11.9141 12.4996H14.5V11.4996H11.9141C11.8103 11.2074 11.6187 10.9544 11.3656 10.7754C11.1124 10.5964 10.8101 10.5 10.5 10.4996Z" fill="#081A46"/>
</svg>
