<svg width="23" height="24" viewBox="0 0 23 24" fill="none" xmlns="http://www.w3.org/2000/svg">
<path d="M13.5329 9.80044C14.6557 10.9232 14.6557 12.7435 13.5329 13.8663C12.4102 14.9891 10.5898 14.9891 9.46707 13.8663C8.34431 12.7435 8.34431 10.9232 9.46707 9.80044C10.5898 8.67769 12.4102 8.67769 13.5329 9.80044" stroke="#6B7280" stroke-width="1.2" stroke-linecap="round" stroke-linejoin="round"/>
<path fill-rule="evenodd" clip-rule="evenodd" d="M15.5058 18.2782V18.2782C15.9879 18.7602 16.7708 18.7602 17.2529 18.2782L17.9448 17.5862C18.4268 17.1042 18.4268 16.3212 17.9448 15.8392V15.8392C17.5787 15.4731 17.4714 14.924 17.6726 14.4467C17.6937 14.396 17.7148 14.3452 17.7349 14.2934C17.9103 13.8468 18.3454 13.5593 18.8245 13.5593H18.8888C19.5711 13.5593 20.124 13.0064 20.124 12.324V11.3456C20.124 10.6632 19.5711 10.1103 18.8888 10.1103H18.8245C18.3454 10.1103 17.9103 9.82183 17.7349 9.37621C17.7148 9.32446 17.6937 9.27367 17.6726 9.22287C17.4714 8.74562 17.5787 8.1965 17.9448 7.83042V7.83042C18.4268 7.34837 18.4268 6.56542 17.9448 6.08337L17.2529 5.39146C16.7708 4.90942 15.9879 4.90942 15.5058 5.39146V5.39146C15.1398 5.75754 14.5906 5.86487 14.1134 5.66362C14.0626 5.64254 14.0118 5.62146 13.96 5.60133C13.5135 5.42308 13.225 4.98704 13.225 4.50787V4.44367C13.225 3.76133 12.672 3.20837 11.9897 3.20837H11.0113C10.328 3.20837 9.775 3.76133 9.775 4.44367V4.50787C9.775 4.98704 9.48654 5.42212 9.04092 5.5975C8.98917 5.61858 8.93838 5.63871 8.88758 5.66075C8.41033 5.862 7.86121 5.75467 7.49513 5.38858V5.38858C7.01308 4.90654 6.23013 4.90654 5.74808 5.38858L5.05521 6.0805C4.57317 6.56254 4.57317 7.3455 5.05521 7.82754V7.82754C5.42129 8.19362 5.52863 8.74275 5.32738 9.22C5.30533 9.27175 5.28521 9.32254 5.26508 9.37429C5.08971 9.81992 4.65367 10.1084 4.1745 10.1084H4.11029C3.42796 10.1084 2.875 10.6613 2.875 11.3437V12.3221C2.875 13.0054 3.42796 13.5584 4.11029 13.5584H4.1745C4.65367 13.5584 5.08875 13.8468 5.26413 14.2925C5.28425 14.3442 5.30533 14.395 5.32642 14.4458C5.52767 14.923 5.42033 15.4722 5.05425 15.8382V15.8382C4.57221 16.3203 4.57221 17.1032 5.05425 17.5853L5.74617 18.2772C6.22821 18.7592 7.01117 18.7592 7.49321 18.2772V18.2772C7.85929 17.9111 8.40842 17.8038 8.88567 18.005C8.93646 18.0261 8.98725 18.0472 9.039 18.0673C9.48558 18.2427 9.77308 18.6778 9.77308 19.157V19.2212C9.77308 19.9035 10.326 20.4565 11.0084 20.4565H11.9868C12.6692 20.4565 13.2221 19.9035 13.2221 19.2212V19.157C13.2221 18.6778 13.5106 18.2427 13.9562 18.0673C14.008 18.0472 14.0588 18.0261 14.1095 18.005C14.5897 17.8048 15.1388 17.9121 15.5058 18.2782V18.2782Z" stroke="#6B7280" stroke-width="1.2" stroke-linecap="round" stroke-linejoin="round"/>
</svg>
