<svg width="24" height="24" viewBox="0 0 24 24" fill="none" xmlns="http://www.w3.org/2000/svg">
<path fill-rule="evenodd" clip-rule="evenodd" d="M9.95204 11.2196L17.5858 3.58578C18.3669 2.80474 19.6332 2.80474 20.4143 3.58578V3.58578C21.1953 4.36683 21.1953 5.63316 20.4143 6.4142L12.7804 14.0481C12.6522 14.1762 12.4917 14.2671 12.3158 14.3111L9.62177 14.9846C9.45138 15.0272 9.27114 14.9772 9.14695 14.8531C9.02275 14.7289 8.97283 14.5486 9.01543 14.3782L9.68895 11.6842C9.73293 11.5083 9.82386 11.3478 9.95204 11.2196Z" stroke="#323232" stroke-width="1.5" stroke-linecap="round" stroke-linejoin="round"/>
<path d="M21 11.0624V16C21 18.7614 18.7614 21 16 21H8C5.23858 21 3 18.7614 3 16V8C3 5.23858 5.23858 3 8 3H12.9377" stroke="#323232" stroke-width="1.5" stroke-linecap="round" stroke-linejoin="round"/>
</svg>
