<svg width="41" height="14" viewBox="0 0 41 14" fill="none" xmlns="http://www.w3.org/2000/svg">
<g id="Verve White">
<ellipse id="Oval" cx="7.43452" cy="7.00002" rx="6.93452" ry="6.90706" fill="#EE312A"/>
<path id="Shape" fill-rule="evenodd" clip-rule="evenodd" d="M16.4351 4.9244C16.7949 4.98712 17.2111 5.13862 17.4728 5.30073C18.1191 5.70311 18.572 6.38051 18.7693 7.23738C18.8684 7.67354 18.8813 7.79995 18.8803 8.36927C18.8783 8.66165 18.8704 8.94052 18.8614 8.99166L18.8446 9.0814L16.5243 9.08719L14.2059 9.09105V9.14123C14.2059 9.21649 14.2723 9.42781 14.3427 9.57159C14.6153 10.1293 15.1525 10.47 15.9097 10.5693C16.108 10.5964 16.6521 10.5964 16.9187 10.5693C17.3489 10.5279 17.7692 10.4555 18.1874 10.3522C18.3113 10.3223 18.4174 10.3001 18.4223 10.304C18.4283 10.3107 18.6315 11.8469 18.6315 11.8962C18.6315 11.9174 18.3896 11.9965 18.0943 12.0747C17.3905 12.2541 16.4945 12.3449 15.8225 12.3034C14.9503 12.2474 14.2832 12.0486 13.6945 11.6655C13.4249 11.4899 13.0591 11.1367 12.8778 10.8752C12.4119 10.2007 12.2018 9.38439 12.2295 8.36058C12.2414 7.93697 12.2712 7.71696 12.3653 7.35993C12.5358 6.71438 12.8341 6.20392 13.302 5.76294C13.8134 5.28143 14.4785 4.98519 15.2615 4.89159C15.5093 4.86071 16.1853 4.88098 16.4351 4.9244ZM37.7961 4.89043C38.5603 4.96956 39.2016 5.27641 39.6456 5.7724C40.166 6.35426 40.4584 7.18605 40.498 8.19731C40.5069 8.45689 40.4851 8.88436 40.4534 9.03489L40.4435 9.08989H38.1222C36.1924 9.08989 35.7999 9.09279 35.7999 9.11305C35.7999 9.18542 35.8832 9.43727 35.9535 9.58298C36.2182 10.1205 36.7276 10.4524 37.4611 10.5585C38.033 10.6435 39.0142 10.5537 39.8419 10.3405C39.942 10.3154 40.0252 10.2951 40.0292 10.299C40.0332 10.3048 40.2046 11.6567 40.2314 11.8834C40.2383 11.9375 39.598 12.116 39.0935 12.199C38.6089 12.279 38.2887 12.3041 37.7812 12.3041C37.4403 12.3041 37.242 12.2964 37.0676 12.2733C35.7067 12.1005 34.7552 11.4907 34.2438 10.4688C34.0624 10.1041 33.9445 9.70746 33.8701 9.20665C33.8552 9.10244 33.8463 8.85348 33.8463 8.5032C33.8473 7.91748 33.8661 7.74089 33.9752 7.33368C34.111 6.82516 34.3736 6.33496 34.7106 5.95284C35.225 5.37194 36.016 4.98403 36.8733 4.89043C37.0775 4.8692 37.588 4.86727 37.7961 4.89043ZM24.0729 4.95082C24.3118 4.98459 24.6012 5.03863 24.7142 5.07337L24.7895 5.09653L24.6339 5.89744C24.5506 6.33746 24.4763 6.70124 24.4733 6.7051C24.4694 6.708 24.4436 6.70317 24.4139 6.69256C24.1819 6.60571 23.5862 6.55747 23.2988 6.60185C23.0342 6.64335 22.6694 6.78037 22.5505 6.88555C22.5198 6.91257 22.5178 7.06213 22.5178 9.52662V12.1368H21.48H20.4433V8.91291V5.6919L20.5969 5.5983C21.1728 5.24417 21.823 5.02802 22.5911 4.93442C22.8786 4.90064 23.7716 4.90933 24.0729 4.95082ZM27.9608 5.09935C27.9667 5.11962 27.9826 5.18427 28.0054 5.27015C28.0242 5.34445 28.047 5.43612 28.0718 5.52876C28.377 6.71854 28.8528 8.15148 29.3325 9.33065L29.4862 9.70504L29.5565 9.541C30.0293 8.43614 30.5774 6.79959 30.9253 5.45639L31.0324 5.04146L32.0701 5.03663L33.1089 5.03277L33.0623 5.19874C32.9879 5.46507 32.8581 5.89447 32.7292 6.30361C32.081 8.33675 31.296 10.2753 30.5031 11.7845L30.3237 12.1271L29.4971 12.1319C28.8379 12.1357 28.6665 12.1319 28.6516 12.1126C28.6238 12.0798 28.1917 11.2364 28.049 10.9354C27.2887 9.33065 26.4879 7.19425 25.9715 5.3927C25.9249 5.22866 25.8823 5.08102 25.8773 5.06365C25.8684 5.0347 25.9249 5.03277 26.9052 5.03277H27.9419L27.9608 5.09935ZM15.4177 6.29608C14.932 6.36749 14.5881 6.62417 14.369 7.07962C14.2937 7.23498 14.2045 7.53604 14.2045 7.63157V7.68368H15.6417H17.0769L17.064 7.5978C17.0392 7.43472 16.9619 7.2041 16.8678 7.0169C16.7845 6.85479 16.7468 6.80365 16.6021 6.66373C16.4654 6.52671 16.4079 6.48521 16.278 6.42539C16.1918 6.38389 16.0669 6.33854 16.0005 6.32503C15.8449 6.28836 15.5584 6.27582 15.4177 6.29608ZM36.5915 6.42564C36.764 6.34652 36.8522 6.3195 37.0247 6.29634C37.1843 6.27415 37.4509 6.29055 37.6194 6.33204C38.0079 6.4295 38.2874 6.66013 38.4827 7.04418C38.5689 7.21884 38.666 7.52569 38.666 7.63183V7.68394H37.2289H35.7937L35.8066 7.59806C35.8303 7.43498 35.9086 7.20436 36.0028 7.01716C36.0861 6.85505 36.1227 6.80391 36.2674 6.66399C36.4062 6.52696 36.4597 6.4874 36.5915 6.42564Z" fill="#00579F"/>
<path id="Shape_2" fill-rule="evenodd" clip-rule="evenodd" d="M4.60227 3.58071C5.06944 4.82612 5.73599 6.47754 6.29244 7.77016C6.65943 8.62089 7.16133 9.7209 7.1762 9.70673C7.19307 9.68785 7.60073 8.78802 7.88937 8.12519C8.50334 6.72209 9.28098 4.80441 9.74121 3.56655L9.84834 3.28046H11.0396C11.6962 3.28046 12.2338 3.28423 12.2338 3.2899C12.2338 3.31256 11.9501 4.04243 11.7428 4.55986C11.0416 6.2972 10.2411 8.07703 9.33355 9.92201C9.06277 10.4744 8.33671 11.8926 8.20479 12.1277L8.10659 12.3042L7.16827 12.309L6.22896 12.3127L5.98991 11.8595C4.53383 9.0845 3.08965 5.91952 2.17116 3.47307L2.09875 3.28046L3.29596 3.28423L4.49316 3.2899L4.60227 3.58071Z" fill="white"/>
</g>
</svg>
