<svg width="30" height="10" viewBox="0 0 30 10" fill="none" xmlns="http://www.w3.org/2000/svg">
<g id="Group 1000002465">
<path id="polygon9" d="M12.9994 9.7129H10.5697L12.0894 0.317322H14.5189L12.9994 9.7129Z" fill="#00579F"/>
<path id="path11" d="M21.8097 0.547041C21.3304 0.356935 20.5703 0.147034 19.6304 0.147034C17.231 0.147034 15.5414 1.42637 15.531 3.25543C15.5111 4.6049 16.7408 5.35443 17.6604 5.80439C18.6005 6.26418 18.92 6.56429 18.92 6.97412C18.9104 7.60356 18.1604 7.8937 17.4609 7.8937C16.4908 7.8937 15.9711 7.74412 15.1812 7.39393L14.8613 7.24381L14.5213 9.35291C15.0911 9.6125 16.141 9.84286 17.231 9.85296C19.7804 9.85296 21.4402 8.59342 21.4598 6.64426C21.4695 5.5747 20.8202 4.75515 19.4204 4.08546C18.5706 3.65557 18.0501 3.36569 18.0501 2.92583C18.0601 2.52595 18.4903 2.11638 19.4496 2.11638C20.2395 2.09632 20.8198 2.28616 21.2595 2.47614L21.4792 2.57591L21.8097 0.547041Z" fill="#00579F"/>
<path id="path13" d="M25.0407 6.38438C25.2408 5.84462 26.0108 3.75558 26.0108 3.75558C26.0007 3.77564 26.2105 3.20585 26.3304 2.85606L26.5002 3.66564C26.5002 3.66564 26.9604 5.91463 27.0603 6.38438C26.6805 6.38438 25.5206 6.38438 25.0407 6.38438ZM28.0399 0.317322H26.1605C25.581 0.317322 25.1406 0.487102 24.8906 1.09688L21.2816 9.71277H23.831C23.831 9.71277 24.2507 8.55314 24.3409 8.30338C24.6206 8.30338 27.1007 8.30338 27.4605 8.30338C27.5302 8.63324 27.7504 9.71277 27.7504 9.71277H30L28.0399 0.317322Z" fill="#00579F"/>
<path id="path15" d="M8.54332 0.317322L6.16386 6.72421L5.90385 5.42482C5.46393 3.92549 4.08427 2.2965 2.54465 1.48652L4.72415 9.70294H7.29347L11.1125 0.317322H8.54332Z" fill="#00579F"/>
<path id="path17" d="M3.94911 0.317322H0.0399919L0 0.507184C3.04936 1.28696 5.06889 3.16659 5.89863 5.42581L5.04883 1.1072C4.90892 0.507051 4.47897 0.337119 3.94911 0.317322Z" fill="#00579F"/>
</g>
</svg>
