<svg width="361" height="222" viewBox="0 0 361 222" fill="none" xmlns="http://www.w3.org/2000/svg">
<g filter="url(#filter0_b_14012_64736)">
<path d="M84.811 27.2899L286.108 27.2899C291.366 27.2899 295.63 31.5537 295.63 36.8135L295.63 154.333C295.63 159.593 291.366 163.856 286.108 163.856L84.811 163.856C79.5522 163.856 75.289 159.593 75.289 154.333L75.289 36.8135C75.289 31.5537 79.5522 27.2899 84.811 27.2899Z" fill="url(#paint0_linear_14012_64736)" stroke="#EDEEFF" stroke-width="0.578275"/>
<path d="M93.4161 76.7228L93.4161 92.4787L93.4161 94.174C93.4161 94.7535 93.8859 95.2232 94.4654 95.2232L118.707 95.2232C119.286 95.2232 119.756 94.7535 119.756 94.174L119.756 75.0275C119.756 74.448 119.286 73.9783 118.707 73.9783L94.4654 73.9783C93.8859 73.9783 93.4161 74.448 93.4161 75.0275L93.4161 76.7228Z" stroke="#9FA6B2" stroke-width="0.745352"/>
<path d="M103.478 74.0823C102.412 77.3012 100.921 86.0364 103.478 95.2256" stroke="#9FA6B2" stroke-width="0.745352"/>
<path d="M110.079 74.0806C111.144 77.2995 112.636 86.0347 110.079 95.2239" stroke="#9FA6B2" stroke-width="0.745352"/>
<path d="M93.5117 81.3997L102.227 81.3997" stroke="#9FA6B2" stroke-width="0.745352"/>
<path d="M111.43 81.2959L119.758 81.2959" stroke="#9FA6B2" stroke-width="0.745352"/>
<path d="M93.5127 87.4976L102.228 87.4976" stroke="#9FA6B2" stroke-width="0.745352"/>
<path d="M111.431 87.3938L119.759 87.3938" stroke="#9FA6B2" stroke-width="0.745352"/>
<path d="M126.623 82.59C126.546 82.485 126.49 82.3658 126.458 82.2391C126.427 82.1125 126.421 81.9809 126.44 81.8518C126.479 81.5912 126.62 81.3568 126.832 81.2003C127.044 81.0437 127.31 80.9777 127.571 81.0169C127.831 81.0561 128.066 81.1972 128.222 81.4092C128.589 81.902 128.876 82.4497 129.072 83.0321C129.276 83.6364 129.38 84.27 129.379 84.9077C129.379 85.5438 129.276 86.1757 129.072 86.7784C128.876 87.3608 128.589 87.9086 128.222 88.4014C128.066 88.6133 127.831 88.7544 127.571 88.7936C127.31 88.8328 127.044 88.7669 126.832 88.6103C126.62 88.4537 126.479 88.2193 126.44 87.9587C126.401 87.6981 126.467 87.4326 126.623 87.2206C126.866 86.8977 127.056 86.5386 127.187 86.1565C127.326 85.7547 127.398 85.3329 127.401 84.9077C127.403 84.485 127.335 84.0648 127.202 83.6638C127.067 83.2774 126.872 82.9148 126.623 82.59ZM130.025 80.7387C130.798 81.9913 131.206 83.4355 131.201 84.9077C131.207 86.3773 130.803 87.8195 130.035 89.0719C129.966 89.1829 129.92 89.3064 129.899 89.4352C129.878 89.564 129.883 89.6957 129.913 89.8227C129.943 89.9497 129.998 90.0696 130.074 90.1755C130.15 90.2813 130.247 90.3711 130.358 90.4397C130.469 90.5083 130.592 90.5544 130.721 90.5752C130.85 90.5961 130.981 90.5914 131.108 90.5614C131.235 90.5314 131.355 90.4767 131.461 90.4004C131.567 90.324 131.657 90.2276 131.725 90.1166C132.689 88.5508 133.194 86.7462 133.183 84.9077C133.195 83.0676 132.69 81.2613 131.725 79.694C131.657 79.5829 131.567 79.4865 131.461 79.4102C131.355 79.3339 131.235 79.2791 131.108 79.2491C130.981 79.2191 130.85 79.2144 130.721 79.2353C130.592 79.2562 130.469 79.3023 130.358 79.3708C130.247 79.4394 130.15 79.5292 130.074 79.6351C129.998 79.741 129.943 79.8608 129.913 79.9878C129.883 80.1148 129.878 80.2465 129.899 80.3754C129.92 80.5042 129.966 80.6276 130.035 80.7387L130.025 80.7387ZM133.645 78.8679C134.718 80.7067 135.284 82.7979 135.282 84.9271C135.283 87.0548 134.718 89.1443 133.645 90.9815C133.579 91.0941 133.536 91.2186 133.518 91.348C133.5 91.4773 133.507 91.6089 133.54 91.7352C133.573 91.8616 133.631 91.9802 133.71 92.0843C133.788 92.1884 133.887 92.276 133.999 92.342C134.112 92.4081 134.237 92.4513 134.366 92.4692C134.495 92.4871 134.627 92.4794 134.753 92.4464C134.88 92.4135 134.998 92.356 135.102 92.2772C135.206 92.1984 135.294 92.0999 135.36 91.9873C136.614 89.848 137.274 87.412 137.27 84.932C137.278 82.4429 136.62 79.9969 135.365 77.8475C135.23 77.6194 135.009 77.4544 134.752 77.3888C134.495 77.3232 134.223 77.3624 133.995 77.4977C133.767 77.633 133.602 77.8534 133.536 78.1104C133.47 78.3673 133.509 78.6398 133.645 78.8679ZM137.25 76.9729C138.631 79.3961 139.355 82.1381 139.349 84.9271C139.354 87.7146 138.631 90.4549 137.25 92.8765C137.186 92.9898 137.145 93.1145 137.13 93.2436C137.114 93.3726 137.124 93.5035 137.159 93.6287C137.194 93.7539 137.253 93.871 137.334 93.9733C137.414 94.0756 137.513 94.1611 137.627 94.2249C137.74 94.2887 137.865 94.3296 137.994 94.3452C138.123 94.3608 138.254 94.3508 138.379 94.3159C138.504 94.2809 138.621 94.2216 138.724 94.1414C138.826 94.0612 138.911 93.9616 138.975 93.8483C140.526 91.1257 141.34 88.0458 141.337 84.9126C141.344 81.7711 140.53 78.6823 138.975 75.9525C138.846 75.7238 138.632 75.5556 138.379 75.485C138.126 75.4144 137.855 75.4471 137.627 75.5759C137.398 75.7048 137.23 75.9193 137.159 76.1721C137.089 76.425 137.121 76.6956 137.25 76.9243" fill="white"/>
</g>
<g filter="url(#filter1_bd_14012_64736)">
<path d="M18.8111 211.051L220.108 211.051C225.367 211.051 229.63 206.788 229.63 201.528L229.63 84.0085C229.63 78.7487 225.367 74.4849 220.108 74.4849L18.8111 74.4849C13.5523 74.4849 9.28914 78.7487 9.28914 84.0085L9.28914 201.528C9.28914 206.788 13.5523 211.051 18.8111 211.051Z" fill="#081A46" stroke="#EDEEFF" stroke-width="0.578275"/>
<path d="M29 122.9L29 111.064L29 109.79C29 109.355 29.3529 109.002 29.7883 109.002L47.9999 109.002C48.4352 109.002 48.7881 109.355 48.7881 109.79L48.7881 124.174C48.7881 124.609 48.4352 124.962 47.9999 124.962L29.7883 124.962C29.3529 124.962 29 124.609 29 124.174L29 122.9Z" stroke="#9FA6B2" stroke-width="0.55995"/>
<path d="M36.5585 124.884C35.7583 122.466 34.6379 115.904 36.5585 109" stroke="#9FA6B2" stroke-width="0.55995"/>
<path d="M41.5183 124.885C42.3185 122.467 43.4389 115.905 41.5183 109.001" stroke="#9FA6B2" stroke-width="0.55995"/>
<path d="M29.0715 119.387L35.6191 119.387" stroke="#9FA6B2" stroke-width="0.55995"/>
<path d="M42.533 119.465L48.7895 119.465" stroke="#9FA6B2" stroke-width="0.55995"/>
<path d="M29.0725 114.806L35.62 114.806" stroke="#9FA6B2" stroke-width="0.55995"/>
<path d="M42.5334 114.884L48.79 114.884" stroke="#9FA6B2" stroke-width="0.55995"/>
<path d="M53.9468 118.492C53.8886 118.571 53.8464 118.661 53.8228 118.756C53.7992 118.851 53.7945 118.95 53.8091 119.047C53.8385 119.243 53.9445 119.419 54.1038 119.536C54.263 119.654 54.4625 119.704 54.6583 119.674C54.8541 119.645 55.0302 119.539 55.1478 119.379C55.4237 119.009 55.6393 118.598 55.7866 118.16C55.9398 117.706 56.0175 117.23 56.0166 116.751C56.0171 116.273 55.9394 115.799 55.7866 115.346C55.6393 114.908 55.4237 114.497 55.1478 114.127C55.0302 113.967 54.8541 113.861 54.6583 113.832C54.4625 113.802 54.263 113.852 54.1038 113.97C53.9445 114.087 53.8385 114.263 53.8091 114.459C53.7796 114.655 53.8292 114.854 53.9468 115.014C54.1291 115.256 54.272 115.526 54.3703 115.813C54.4747 116.115 54.529 116.432 54.5309 116.751C54.5321 117.069 54.4816 117.384 54.3812 117.686C54.2803 117.976 54.1336 118.248 53.9468 118.492ZM56.5021 119.883C57.0831 118.942 57.3891 117.857 57.3855 116.751C57.3904 115.647 57.087 114.564 56.5094 113.623C56.4578 113.539 56.4233 113.447 56.4076 113.35C56.3919 113.253 56.3954 113.154 56.4179 113.059C56.4405 112.963 56.4816 112.873 56.5389 112.794C56.5963 112.714 56.6687 112.647 56.7521 112.595C56.8355 112.544 56.9283 112.509 57.0251 112.493C57.1219 112.478 57.2208 112.481 57.3162 112.504C57.4116 112.526 57.5017 112.567 57.5812 112.625C57.6607 112.682 57.7282 112.755 57.7797 112.838C58.5035 114.014 58.8829 115.37 58.8748 116.751C58.8834 118.133 58.504 119.491 57.7797 120.668C57.7282 120.751 57.6607 120.824 57.5812 120.881C57.5017 120.939 57.4116 120.98 57.3162 121.002C57.2208 121.025 57.1219 121.028 57.0251 121.013C56.9283 120.997 56.8355 120.962 56.7521 120.911C56.6687 120.859 56.5963 120.792 56.5389 120.712C56.4816 120.633 56.4405 120.543 56.4179 120.447C56.3954 120.352 56.3919 120.253 56.4076 120.156C56.4233 120.059 56.4578 119.967 56.5094 119.883L56.5021 119.883ZM59.2216 121.289C60.0282 119.907 60.4528 118.336 60.4518 116.737C60.4523 115.138 60.0277 113.568 59.2216 112.188C59.172 112.104 59.1395 112.01 59.1261 111.913C59.1126 111.816 59.1184 111.717 59.1432 111.622C59.1679 111.527 59.2111 111.438 59.2703 111.36C59.3295 111.281 59.4035 111.216 59.4881 111.166C59.5727 111.116 59.6663 111.084 59.7634 111.071C59.8606 111.057 59.9594 111.063 60.0543 111.088C60.1492 111.112 60.2383 111.156 60.3166 111.215C60.3948 111.274 60.4606 111.348 60.5102 111.433C61.4526 113.04 61.9479 114.87 61.9448 116.733C61.951 118.603 61.4569 120.44 60.5138 122.055C60.4122 122.226 60.2466 122.35 60.0536 122.4C59.8605 122.449 59.6558 122.42 59.4844 122.318C59.3131 122.216 59.1891 122.051 59.1398 121.858C59.0905 121.665 59.12 121.46 59.2216 121.289ZM61.9302 122.712C62.9677 120.892 63.5113 118.832 63.5071 116.737C63.5108 114.642 62.9672 112.584 61.9302 110.765C61.8822 110.679 61.8515 110.586 61.8398 110.489C61.8281 110.392 61.8356 110.293 61.8618 110.199C61.8881 110.105 61.9327 110.017 61.9929 109.941C62.0532 109.864 62.128 109.799 62.2131 109.752C62.2982 109.704 62.3919 109.673 62.4888 109.661C62.5858 109.649 62.6841 109.657 62.7782 109.683C62.8722 109.709 62.9602 109.754 63.0371 109.814C63.1139 109.875 63.1781 109.949 63.2261 110.034C64.3911 112.08 65.0026 114.394 65.0002 116.747C65.0056 119.108 64.394 121.428 63.2261 123.479C63.1293 123.651 62.9681 123.777 62.7782 123.83C62.5882 123.883 62.3849 123.858 62.2131 123.762C62.0412 123.665 61.9149 123.504 61.8618 123.314C61.8088 123.124 61.8334 122.921 61.9302 122.749" fill="white"/>
</g>
<path fill-rule="evenodd" clip-rule="evenodd" d="M351.557 22.6217C351.539 22.2272 351.542 21.8432 351.561 21.4826C351.624 20.3985 352.632 20.4022 352.71 20.4037C352.875 20.4074 353.606 20.4537 353.782 21.299C353.793 21.3494 353.819 21.7144 353.826 21.8551C353.841 22.1552 353.849 22.45 353.808 22.746C353.845 23.248 353.927 23.7645 354.084 24.2504C354.312 24.9677 354.681 25.6298 355.349 25.9825C356.543 26.617 358.115 26.5912 359.428 26.7524C359.977 26.8196 360.395 27.2772 360.414 27.8295C360.429 28.3823 360.04 28.8644 359.496 28.9648C357.853 29.2686 355.965 30.7619 354.763 31.9644C354.394 32.3339 353.979 33.2139 353.517 33.7774C353.143 34.229 352.729 34.5317 352.337 34.6519C352.184 34.6985 351.337 34.8687 350.956 33.9917C350.852 33.7454 350.482 32.4555 350.449 32.3085C350.247 31.4658 349.96 30.713 349.396 30.0427C348.907 29.4616 348.314 28.954 347.601 28.6726C347.314 28.5592 347.015 28.473 346.717 28.3841C346.612 28.3714 346.317 28.3341 346.213 28.2987C346 28.2277 345.843 28.1165 345.731 28.0057C345.519 27.7959 345.41 27.5455 345.392 27.2604C345.377 27.0723 345.403 26.8491 345.537 26.6017C345.638 26.4259 345.866 26.1613 346.276 25.9896C346.705 25.8101 347.627 25.6395 347.791 25.5951C348.934 25.2876 350.053 24.8199 350.93 24.0093C351.367 23.604 351.468 23.167 351.557 22.6217ZM352.289 25.7955C352.729 26.7084 353.386 27.4769 354.3 27.9609C354.677 28.1621 355.088 28.3147 355.513 28.4334C354.636 29.044 353.823 29.7381 353.177 30.3816C352.968 30.5909 352.74 30.9298 352.498 31.3019C352.214 30.3084 351.796 29.4161 351.109 28.5995C350.703 28.118 350.243 27.678 349.732 27.3111C350.658 26.9446 351.535 26.4542 352.289 25.7955Z" fill="#EDC239"/>
<path fill-rule="evenodd" clip-rule="evenodd" d="M328.228 54.3341C336.722 54.5394 345.403 54.1251 353.524 57.0287C354.106 57.2377 354.748 56.9317 354.957 56.3532C355.166 55.771 354.86 55.1291 354.278 54.9201C345.929 51.9343 337.013 52.3038 328.284 52.0948C327.664 52.0799 327.153 52.5688 327.138 53.1846C327.123 53.8042 327.612 54.3154 328.228 54.3341Z" fill="#EDC239"/>
<path fill-rule="evenodd" clip-rule="evenodd" d="M327.597 41.9252C330.228 39.5049 333.098 37.6899 336.569 36.7912C337.166 36.6363 337.524 36.025 337.371 35.4268C337.214 34.8285 336.606 34.4687 336.005 34.6236C332.169 35.6167 328.989 37.6022 326.081 40.2767C325.626 40.6951 325.596 41.4038 326.014 41.8587C326.432 42.3137 327.141 42.3436 327.597 41.9252Z" fill="#EDC239"/>
<path fill-rule="evenodd" clip-rule="evenodd" d="M320.267 15.1839C321.472 11.058 323.842 7.83012 327.473 5.49939C327.992 5.16574 328.145 4.4723 327.809 3.95241C327.477 3.43215 326.783 3.281 326.264 3.61503C322.159 6.2488 319.479 9.89399 318.117 14.5566C317.945 15.1496 318.285 15.7717 318.878 15.9449C319.472 16.1181 320.095 15.777 320.267 15.1839Z" fill="#EDC239"/>
<path fill-rule="evenodd" clip-rule="evenodd" d="M277.937 9.4462C277.235 10.28 276.608 11.1757 276.071 12.1274C275.757 12.6764 275.205 13.955 275.298 14.881C275.369 15.5748 275.697 16.1391 276.354 16.472C277.403 17.0049 278.243 16.9396 278.888 16.6175C279.508 16.3092 280.001 15.7084 280.307 14.8966C280.851 13.4474 280.788 11.2567 280.512 9.93698C281.258 9.17599 282.076 8.48405 282.945 7.86676C289.633 3.12581 299.445 4.89709 306.995 11.9859C309.641 14.4693 310.899 19.6902 311.56 25.3172C312.601 34.1467 312.008 44.0081 311.925 46.8971C311.907 47.6574 311.989 48.1082 312.026 48.1982C312.235 48.6949 312.608 48.8255 312.866 48.8741C313.228 48.9412 313.515 48.8703 313.75 48.7472C314.064 48.583 314.325 48.2948 314.445 47.8462C314.504 47.6171 314.523 47.2987 314.516 46.9587C314.508 46.7576 314.46 46.5381 314.501 46.3941C314.792 45.3815 315.143 44.3921 315.482 43.3964C316.624 40.0468 318.106 36.9081 319.744 33.7727C324.966 23.8041 330.004 13.2679 338.562 5.67301C339.025 5.26284 339.069 4.55486 338.659 4.09245C338.248 3.63041 337.539 3.58823 337.076 3.99839C328.313 11.7739 323.103 22.5281 317.763 32.7344C316.52 35.1058 315.37 37.4806 314.381 39.9412C314.471 34.3859 314.336 26.8578 313.101 20.6445C312.224 16.2137 310.757 12.4427 308.529 10.3535C300.106 2.44508 289.111 0.750671 281.65 6.03987C280.915 6.56013 280.217 7.12818 279.556 7.74099C275.593 0.819359 267.296 -1.92675 259.955 1.42359C259.395 1.68036 259.145 2.34505 259.403 2.90711C259.66 3.46917 260.325 3.71735 260.884 3.46058C267.356 0.507704 274.686 3.11238 277.937 9.4462ZM278.511 12.42C278.34 12.6846 278.176 12.9548 278.019 13.2306C277.907 13.4239 277.739 13.7606 277.623 14.1203C277.586 14.2454 277.556 14.442 277.541 14.5622C277.679 14.6279 277.791 14.6622 277.892 14.6126C278.056 14.5301 278.127 14.3245 278.209 14.1069C278.392 13.6221 278.485 13.0186 278.511 12.42Z" fill="#EDC239"/>
<defs>
<filter id="filter0_b_14012_64736" x="32.3089" y="-15.6903" width="306.301" height="222.527" filterUnits="userSpaceOnUse" color-interpolation-filters="sRGB">
<feFlood flood-opacity="0" result="BackgroundImageFix"/>
<feGaussianBlur in="BackgroundImageFix" stdDeviation="21.3455"/>
<feComposite in2="SourceAlpha" operator="in" result="effect1_backgroundBlur_14012_64736"/>
<feBlend mode="normal" in="SourceGraphic" in2="effect1_backgroundBlur_14012_64736" result="shape"/>
</filter>
<filter id="filter1_bd_14012_64736" x="-33.691" y="31.5048" width="306.301" height="222.527" filterUnits="userSpaceOnUse" color-interpolation-filters="sRGB">
<feFlood flood-opacity="0" result="BackgroundImageFix"/>
<feGaussianBlur in="BackgroundImageFix" stdDeviation="21.3455"/>
<feComposite in2="SourceAlpha" operator="in" result="effect1_backgroundBlur_14012_64736"/>
<feColorMatrix in="SourceAlpha" type="matrix" values="0 0 0 0 0 0 0 0 0 0 0 0 0 0 0 0 0 0 127 0" result="hardAlpha"/>
<feOffset dy="1.76961"/>
<feGaussianBlur stdDeviation="4.42402"/>
<feComposite in2="hardAlpha" operator="out"/>
<feColorMatrix type="matrix" values="0 0 0 0 0.195833 0 0 0 0 0.18033 0 0 0 0 0.18033 0 0 0 0.1 0"/>
<feBlend mode="normal" in2="effect1_backgroundBlur_14012_64736" result="effect2_dropShadow_14012_64736"/>
<feBlend mode="normal" in="SourceGraphic" in2="effect2_dropShadow_14012_64736" result="shape"/>
</filter>
<linearGradient id="paint0_linear_14012_64736" x1="74.9999" y1="95.5731" x2="295.919" y2="95.5731" gradientUnits="userSpaceOnUse">
<stop stop-color="#E1E7FF"/>
<stop offset="1" stop-color="#E9E4F0"/>
</linearGradient>
</defs>
</svg>
